<svg width="1440" height="174" viewBox="0 0 1440 174" fill="none" xmlns="http://www.w3.org/2000/svg">
<path fill-rule="evenodd" clip-rule="evenodd" d="M0 0.693947L60 7.89395C120 15.0939 240 29.4939 360 22.2939C480 15.0939 600 -13.7061 720 7.89395C840 29.4939 960 101.494 1080 108.694C1200 115.894 1320 58.2939 1380 29.4939L1440 0.693947V173.494H1380C1320 173.494 1200 173.494 1080 173.494C960 173.494 840 173.494 720 173.494C600 173.494 480 173.494 360 173.494C240 173.494 120 173.494 60 173.494H0V0.693947Z" fill="#FBFCF5"/>
</svg>
