<svg width="241" height="66" viewBox="0 0 241 66" fill="none" xmlns="http://www.w3.org/2000/svg">
<path d="M22.684 23.3984C23.0434 23.1328 23.3637 22.8125 23.6449 22.4375C23.9418 22.0625 24.1918 21.6562 24.3949 21.2188C24.5981 20.7812 24.7543 20.3203 24.8637 19.8359C24.9731 19.3516 25.0277 18.8594 25.0277 18.3594C25.0277 17.6094 24.8949 16.8672 24.6293 16.1328C24.3793 15.3828 23.9652 14.7109 23.3871 14.1172C22.8246 13.5078 22.0902 13.0156 21.184 12.6406C20.2777 12.2656 19.1762 12.0781 17.8793 12.0781C16.4418 12.0781 15.0824 12.3125 13.8012 12.7812C12.5199 13.25 11.3949 13.8828 10.4262 14.6797C9.47305 15.4766 8.71524 16.3984 8.15274 17.4453C7.59024 18.4922 7.30899 19.5859 7.30899 20.7266C7.30899 21.9297 7.59024 23 8.15274 23.9375C8.73087 24.8594 9.48087 25.7031 10.4027 26.4688C11.3402 27.2188 12.4027 27.9141 13.5902 28.5547C14.7777 29.1953 15.9887 29.8281 17.2231 30.4531C18.4574 31.0781 19.6684 31.7344 20.8559 32.4219C22.0434 33.0938 23.0981 33.8516 24.0199 34.6953C24.9574 35.5391 25.7074 36.4844 26.2699 37.5312C26.8481 38.5781 27.1371 39.7891 27.1371 41.1641C27.1371 42.4766 26.8246 43.7344 26.1996 44.9375C25.5746 46.1406 24.7152 47.2109 23.6215 48.1484C22.5277 49.0703 21.2387 49.8047 19.7543 50.3516C18.2856 50.9141 16.6996 51.1953 14.9965 51.1953C13.0902 51.1953 11.5121 50.9844 10.2621 50.5625C9.02774 50.1562 8.04337 49.6406 7.30899 49.0156C6.59024 48.3906 6.09024 47.7188 5.80899 47C5.52774 46.2656 5.38712 45.5859 5.38712 44.9609C5.38712 44.1953 5.5043 43.5078 5.73868 42.8984C5.98868 42.2734 6.3168 41.7188 6.72305 41.2344C7.1293 40.7344 7.58243 40.3047 8.08243 39.9453C8.59805 39.5703 9.12149 39.2578 9.65274 39.0078C10.1996 38.7422 10.7231 38.5312 11.2231 38.375C11.7387 38.2031 12.1996 38.0781 12.6059 38L12.8402 39.1953C12.6527 39.2578 12.309 39.4141 11.809 39.6641C11.3246 39.8984 10.8168 40.25 10.2856 40.7188C9.7543 41.1719 9.28555 41.7422 8.8793 42.4297C8.47305 43.1172 8.26993 43.9297 8.26993 44.8672C8.26993 45.5078 8.40274 46.1328 8.66837 46.7422C8.94962 47.3516 9.36368 47.8984 9.91055 48.3828C10.4574 48.8672 11.1293 49.2578 11.9262 49.5547C12.7231 49.8516 13.6527 50 14.7152 50C15.9965 50 17.1137 49.8828 18.0668 49.6484C19.0356 49.3984 19.8637 49.0781 20.5512 48.6875C21.2543 48.2969 21.8246 47.8516 22.2621 47.3516C22.7152 46.8359 23.0668 46.3047 23.3168 45.7578C23.5824 45.2109 23.7621 44.6719 23.8559 44.1406C23.9652 43.5938 24.0199 43.1016 24.0199 42.6641C24.0199 41.4766 23.7465 40.4375 23.1996 39.5469C22.6527 38.6406 21.9262 37.8359 21.0199 37.1328C20.1293 36.4141 19.1137 35.7656 17.9731 35.1875C16.8324 34.5938 15.6606 34.0078 14.4574 33.4297C13.2699 32.8516 12.1059 32.25 10.9652 31.625C9.82462 31 8.80118 30.2891 7.89493 29.4922C7.0043 28.6953 6.28555 27.7891 5.73868 26.7734C5.1918 25.7422 4.91837 24.5391 4.91837 23.1641C4.91837 21.3203 5.30118 19.6328 6.0668 18.1016C6.83243 16.5547 7.86368 15.2344 9.16055 14.1406C10.4574 13.0313 11.9574 12.1719 13.6606 11.5625C15.3793 10.9531 17.184 10.6484 19.0746 10.6484C20.684 10.6484 22.059 10.8359 23.1996 11.2109C24.3402 11.5859 25.2699 12.0781 25.9887 12.6875C26.7231 13.2969 27.2543 13.9922 27.5824 14.7734C27.9262 15.5547 28.0981 16.3516 28.0981 17.1641C28.0981 18.1328 27.9262 19.0156 27.5824 19.8125C27.2543 20.6094 26.8481 21.3203 26.3637 21.9453C25.8949 22.5547 25.3871 23.0703 24.8402 23.4922C24.2934 23.8984 23.809 24.1875 23.3871 24.3594L22.684 23.3984ZM42.184 46.0625C41.5746 47.3438 40.8012 48.3203 39.8637 48.9922C38.9418 49.6641 37.9184 50 36.7934 50C35.7777 50 34.8715 49.7812 34.0746 49.3438C33.2934 48.8906 32.6293 48.2812 32.0824 47.5156C31.5512 46.7344 31.1449 45.8359 30.8637 44.8203C30.5981 43.8047 30.4652 42.7188 30.4652 41.5625C30.4652 39.75 30.6762 38.1719 31.0981 36.8281C31.5356 35.4688 32.0902 34.3438 32.7621 33.4531C33.4496 32.5625 34.2152 31.8984 35.059 31.4609C35.9027 31.0234 36.7387 30.8047 37.5668 30.8047C38.1606 30.8047 38.7074 30.8984 39.2074 31.0859C39.7074 31.2734 40.1527 31.5156 40.5434 31.8125C40.9496 32.1094 41.2934 32.4453 41.5746 32.8203C41.8559 33.1797 42.0746 33.5312 42.2309 33.875C42.2621 33.25 42.3246 32.7422 42.4184 32.3516C42.5121 31.9453 42.6449 31.6328 42.8168 31.4141C43.0043 31.1797 43.2387 31.0234 43.5199 30.9453C43.8012 30.8516 44.1527 30.8047 44.5746 30.8047C44.934 30.8047 45.184 30.8672 45.3246 30.9922C45.4652 31.1016 45.5356 31.2812 45.5356 31.5312C45.5356 31.6562 45.5199 31.8438 45.4887 32.0938C45.4731 32.3281 45.4496 32.6562 45.4184 33.0781C45.3871 33.5 45.3559 34.0156 45.3246 34.625C45.309 35.2344 45.3012 35.9609 45.3012 36.8047V47.0703C45.5981 46.7266 45.9106 46.3438 46.2387 45.9219C46.5668 45.4844 46.9106 44.9844 47.2699 44.4219C47.6449 43.8594 48.0356 43.2109 48.4418 42.4766C48.8637 41.7422 49.3168 40.8906 49.8012 39.9219L50.0356 39.4297L50.9965 40.1562L50.7621 40.6484C49.7934 42.5391 48.8246 44.1875 47.8559 45.5938C46.9027 47 46.0512 48.1484 45.3012 49.0391V57.6875C45.3012 58.5781 45.2621 59.3047 45.184 59.8672C45.1215 60.4297 44.9965 60.8672 44.809 61.1797C44.6371 61.5078 44.3949 61.7266 44.0824 61.8359C43.7699 61.9453 43.3715 62 42.8871 62C42.5277 62 42.2777 61.9375 42.1371 61.8125C41.9965 61.7031 41.9262 61.5234 41.9262 61.2734C41.9262 61.1641 41.934 60.9844 41.9496 60.7344C41.9809 60.4844 42.0121 60.1484 42.0434 59.7266C42.0902 59.3047 42.1215 58.7891 42.1371 58.1797C42.1684 57.5703 42.184 56.8438 42.184 56V46.0625ZM42.2309 38.9609C42.2309 38.3047 42.1371 37.5859 41.9496 36.8047C41.7621 36.0078 41.4887 35.2734 41.1293 34.6016C40.7699 33.9297 40.3168 33.3672 39.7699 32.9141C39.2231 32.4609 38.5981 32.2344 37.8949 32.2344C37.3481 32.2344 36.8168 32.3672 36.3012 32.6328C35.7856 32.8828 35.3246 33.3125 34.9184 33.9219C34.5277 34.5156 34.2074 35.3125 33.9574 36.3125C33.7074 37.3125 33.5824 38.5469 33.5824 40.0156C33.5824 41.2969 33.7074 42.3984 33.9574 43.3203C34.2074 44.2422 34.5356 45.0078 34.9418 45.6172C35.3637 46.2109 35.8324 46.6484 36.3481 46.9297C36.8637 47.2109 37.3949 47.3516 37.9418 47.3516C38.5668 47.3516 39.1371 47.2266 39.6527 46.9766C40.1684 46.7266 40.6137 46.3125 40.9887 45.7344C41.3637 45.1562 41.6527 44.3984 41.8559 43.4609C42.0746 42.5234 42.1996 41.375 42.2309 40.0156V38.9609ZM59.6684 44.9141C59.5902 45.0391 59.4731 45.2578 59.3168 45.5703C59.1762 45.8672 58.9887 46.2031 58.7543 46.5781C58.5356 46.9531 58.2699 47.3438 57.9574 47.75C57.6606 48.1562 57.3168 48.5234 56.9262 48.8516C56.5356 49.1797 56.0981 49.4531 55.6137 49.6719C55.1449 49.8906 54.6215 50 54.0434 50C53.5902 50 53.1215 49.9062 52.6371 49.7188C52.1527 49.5312 51.6996 49.1875 51.2777 48.6875C50.8715 48.1875 50.5356 47.5078 50.2699 46.6484C50.0043 45.7734 49.8715 44.6484 49.8715 43.2734C49.8715 41.9609 49.9184 40.6484 50.0121 39.3359C50.1059 38.0078 50.2152 36.7969 50.3402 35.7031C50.4809 34.6094 50.6137 33.6953 50.7387 32.9609C50.8637 32.2266 50.9574 31.7812 51.0199 31.625C51.0824 31.4844 51.2074 31.3594 51.3949 31.25C51.5824 31.1406 51.7934 31.0547 52.0277 30.9922C52.2777 30.9297 52.5277 30.8828 52.7777 30.8516C53.0434 30.8203 53.2699 30.8047 53.4574 30.8047C53.7074 30.8047 53.9027 30.8672 54.0434 30.9922C54.1996 31.1172 54.2777 31.3281 54.2777 31.625C54.2777 31.7656 54.2465 32.0469 54.184 32.4688C54.1371 32.875 54.0746 33.375 53.9965 33.9688C53.9184 34.5625 53.8324 35.2188 53.7387 35.9375C53.6606 36.6562 53.5824 37.3906 53.5043 38.1406C53.4262 38.875 53.3559 39.6094 53.2934 40.3438C53.2465 41.0625 53.2231 41.7188 53.2231 42.3125C53.2231 44.0156 53.4027 45.2812 53.7621 46.1094C54.1371 46.9375 54.7465 47.3516 55.5902 47.3516C56.309 47.3516 57.0356 46.8281 57.7699 45.7812C58.5199 44.7344 59.1684 43.2109 59.7152 41.2109C59.7934 40.3672 59.8637 39.4688 59.9262 38.5156C60.0043 37.5469 60.0746 36.6328 60.1371 35.7734C60.1996 34.8984 60.2543 34.1172 60.3012 33.4297C60.3637 32.7422 60.4184 32.25 60.4652 31.9531C60.5121 31.7344 60.6371 31.5547 60.8402 31.4141C61.0434 31.2578 61.2699 31.1406 61.5199 31.0625C61.7856 30.9688 62.0356 30.9062 62.2699 30.875C62.5199 30.8281 62.7074 30.8047 62.8324 30.8047C63.0981 30.8047 63.2777 30.8672 63.3715 30.9922C63.4809 31.1016 63.5356 31.2812 63.5356 31.5312C63.5356 31.75 63.5121 32.1719 63.4652 32.7969C63.434 33.4062 63.3871 34.125 63.3246 34.9531C63.2777 35.7656 63.2231 36.6406 63.1606 37.5781C63.0981 38.5156 63.0356 39.4219 62.9731 40.2969C62.9262 41.1562 62.8793 41.9375 62.8324 42.6406C62.8012 43.3438 62.7856 43.875 62.7856 44.2344C62.7856 45.2969 62.8402 46.1328 62.9496 46.7422C63.0746 47.3516 63.3402 47.6562 63.7465 47.6562C64.0434 47.6562 64.3637 47.4688 64.7074 47.0938C65.0668 46.7031 65.4496 46.1641 65.8559 45.4766C66.2777 44.7891 66.7309 43.9766 67.2152 43.0391C67.6996 42.0859 68.2231 41.0469 68.7856 39.9219L69.0199 39.4297L69.9809 40.1562L69.7465 40.6484C68.9965 42.1328 68.3324 43.4609 67.7543 44.6328C67.1918 45.7891 66.6527 46.7656 66.1371 47.5625C65.6215 48.3594 65.0981 48.9688 64.5668 49.3906C64.0356 49.7969 63.4418 50 62.7856 50C62.1762 50 61.6684 49.8828 61.2621 49.6484C60.8715 49.4141 60.559 49.0781 60.3246 48.6406C60.0902 48.2031 59.9184 47.6719 59.809 47.0469C59.7152 46.4219 59.6684 45.7109 59.6684 44.9141ZM70.2387 39.6875L70.0043 40.1562L69.7699 40.6484L68.809 39.9219L69.0434 39.4297C69.434 38.6328 69.7543 37.8359 70.0043 37.0391C70.2699 36.2266 70.4809 35.4688 70.6371 34.7656C70.809 34.0625 70.9496 33.4453 71.059 32.9141C71.1684 32.3828 71.2777 32 71.3871 31.7656C71.4809 31.5781 71.6137 31.4297 71.7856 31.3203C71.9731 31.1953 72.1606 31.0938 72.3481 31.0156C72.5512 30.9375 72.7387 30.8828 72.9106 30.8516C73.0981 30.8203 73.2309 30.8047 73.309 30.8047C73.6527 30.8047 73.8793 30.875 73.9887 31.0156C74.1137 31.1562 74.1762 31.4062 74.1762 31.7656C74.1762 31.9375 74.1371 32.3672 74.059 33.0547C73.9965 33.7266 73.9184 34.5781 73.8246 35.6094C73.7465 36.625 73.6684 37.7734 73.5902 39.0547C73.5277 40.3203 73.4965 41.6328 73.4965 42.9922C73.4965 43.9766 73.5434 44.7578 73.6371 45.3359C73.7309 45.8984 73.8481 46.3203 73.9887 46.6016C74.1449 46.8828 74.309 47.0625 74.4809 47.1406C74.6684 47.2188 74.8559 47.2578 75.0434 47.2578C75.2934 47.2578 75.5746 47.1484 75.8871 46.9297C76.1996 46.7109 76.5668 46.3281 76.9887 45.7812C77.4106 45.2188 77.8949 44.4688 78.4418 43.5312C78.9887 42.5781 79.6293 41.375 80.3637 39.9219L80.6215 39.4297L81.5824 40.1562L81.3246 40.6484C80.7309 41.8047 80.1371 42.9453 79.5434 44.0703C78.9652 45.1953 78.3715 46.1953 77.7621 47.0703C77.1684 47.9453 76.5668 48.6562 75.9574 49.2031C75.3481 49.7344 74.7387 50 74.1293 50C73.4887 50 72.934 49.875 72.4652 49.625C72.0121 49.3594 71.6293 48.9297 71.3168 48.3359C71.0199 47.7422 70.7934 46.9609 70.6371 45.9922C70.4965 45.0078 70.4262 43.7969 70.4262 42.3594C70.4262 41.9531 70.4262 41.5312 70.4262 41.0938C70.4262 40.6406 70.4418 40.1719 70.4731 39.6875H70.2387ZM75.0434 26C75.0434 26.5469 74.8559 27.0078 74.4809 27.3828C74.1215 27.7422 73.6684 27.9219 73.1215 27.9219C72.5902 27.9219 72.1371 27.7422 71.7621 27.3828C71.3871 27.0078 71.1996 26.5469 71.1996 26C71.1996 25.4688 71.3871 25.0156 71.7621 24.6406C72.1371 24.2656 72.5902 24.0781 73.1215 24.0781C73.6684 24.0781 74.1215 24.2656 74.4809 24.6406C74.8559 25.0156 75.0434 25.4688 75.0434 26ZM85.3793 50C84.4262 50 83.5981 49.7969 82.8949 49.3906C82.2074 48.9844 81.6371 48.4375 81.184 47.75C80.7309 47.0469 80.3949 46.2422 80.1762 45.3359C79.9574 44.4297 79.8481 43.4688 79.8481 42.4531C79.8481 41.5625 79.934 40.6562 80.1059 39.7344C80.2777 38.8125 80.5199 37.9219 80.8324 37.0625C81.1606 36.1875 81.5668 35.375 82.0512 34.625C82.5356 33.8594 83.0902 33.1953 83.7152 32.6328C84.3402 32.0703 85.0356 31.625 85.8012 31.2969C86.5824 30.9688 87.4184 30.8047 88.309 30.8047C89.3246 30.8047 90.184 31.0312 90.8871 31.4844C91.6059 31.9375 92.184 32.4922 92.6215 33.1484C92.6371 30.1953 92.7856 27.5859 93.0668 25.3203C93.3481 23.0547 93.7387 21.1562 94.2387 19.625C94.7543 18.0938 95.3637 16.9375 96.0668 16.1562C96.7699 15.3594 97.5434 14.9609 98.3871 14.9609C98.684 14.9609 98.9496 15 99.184 15.0781C99.434 15.1406 99.6371 15.2656 99.7934 15.4531C99.9652 15.6406 100.09 15.8984 100.168 16.2266C100.262 16.5391 100.309 16.9453 100.309 17.4453C100.309 18.4766 100.207 19.6641 100.004 21.0078C99.8012 22.3359 99.5121 23.7891 99.1371 25.3672C98.7621 26.9297 98.3012 28.6016 97.7543 30.3828C97.2231 32.1484 96.6293 33.9844 95.9731 35.8906C95.9887 37.5625 96.0121 39.0078 96.0434 40.2266C96.0746 41.4453 96.1137 42.4766 96.1606 43.3203C96.2231 44.1641 96.2934 44.8516 96.3715 45.3828C96.4652 45.9141 96.5668 46.3281 96.6762 46.625C96.8012 46.9062 96.9418 47.1016 97.0981 47.2109C97.2699 47.3047 97.4574 47.3516 97.6606 47.3516C98.0199 47.3516 98.3793 47.1953 98.7387 46.8828C99.1137 46.5547 99.5121 46.0781 99.934 45.4531C100.356 44.8125 100.809 44.0312 101.293 43.1094C101.793 42.1875 102.34 41.125 102.934 39.9219L103.192 39.4297L104.153 40.1562L103.895 40.6484C102.989 42.4766 102.192 43.9922 101.504 45.1953C100.817 46.3828 100.184 47.3359 99.6059 48.0547C99.0434 48.7734 98.5043 49.2812 97.9887 49.5781C97.4731 49.8594 96.934 50 96.3715 50C95.8246 50 95.3481 49.8672 94.9418 49.6016C94.5512 49.3203 94.2152 48.8906 93.934 48.3125C93.6527 47.7188 93.4262 46.9688 93.2543 46.0625C93.0824 45.1406 92.9496 44.0391 92.8559 42.7578C92.309 43.8516 91.7465 44.8438 91.1684 45.7344C90.5902 46.625 89.9887 47.3906 89.3637 48.0312C88.7543 48.6562 88.1137 49.1406 87.4418 49.4844C86.7699 49.8281 86.0824 50 85.3793 50ZM88.7777 32C87.9184 32 87.1684 32.2656 86.5277 32.7969C85.8871 33.3125 85.3559 33.9922 84.934 34.8359C84.5121 35.6641 84.1996 36.6016 83.9965 37.6484C83.7934 38.6953 83.6918 39.7422 83.6918 40.7891C83.6918 41.6484 83.7543 42.4766 83.8793 43.2734C84.0199 44.0547 84.2231 44.75 84.4887 45.3594C84.7699 45.9688 85.1059 46.4531 85.4965 46.8125C85.8871 47.1719 86.3402 47.3516 86.8559 47.3516C87.3559 47.3516 87.8402 47.2266 88.309 46.9766C88.7934 46.7266 89.2699 46.3281 89.7387 45.7812C90.2074 45.2188 90.684 44.5 91.1684 43.625C91.6527 42.7344 92.1684 41.6562 92.7152 40.3906C92.684 39.6406 92.6606 38.8438 92.6449 38C92.6293 37.1406 92.6215 36.2266 92.6215 35.2578C92.2777 34.2422 91.7543 33.4453 91.0512 32.8672C90.3637 32.2891 89.6059 32 88.7777 32ZM98.6215 18.3125C98.6215 17.5938 98.5356 17.0938 98.3637 16.8125C98.2074 16.5312 98.0199 16.3906 97.8012 16.3906C97.4262 16.3906 97.1215 16.7578 96.8871 17.4922C96.6527 18.2109 96.4652 19.1875 96.3246 20.4219C96.1996 21.6562 96.1059 23.0859 96.0434 24.7109C95.9965 26.3359 95.9731 28.0469 95.9731 29.8438V32.4219C96.4574 30.8438 96.8715 29.4219 97.2152 28.1562C97.559 26.8906 97.8324 25.7109 98.0356 24.6172C98.2387 23.5234 98.3871 22.4688 98.4809 21.4531C98.5746 20.4375 98.6215 19.3906 98.6215 18.3125ZM144.278 36.8984C144.871 36.8984 145.356 36.7344 145.731 36.4062C146.106 36.0781 146.293 35.7109 146.293 35.3047C146.293 35.1016 146.231 34.8984 146.106 34.6953C145.996 34.4922 145.817 34.3125 145.567 34.1562C145.332 34 145.012 33.875 144.606 33.7812C144.215 33.6875 143.739 33.6406 143.176 33.6406C142.442 33.6406 141.731 33.7266 141.043 33.8984C140.356 34.0703 139.661 34.2891 138.957 34.5547C139.614 35.2109 140.137 35.9766 140.528 36.8516C140.918 37.7109 141.114 38.7031 141.114 39.8281C141.114 41.4688 140.786 42.9219 140.129 44.1875C139.489 45.4531 138.621 46.5156 137.528 47.375C136.45 48.2344 135.2 48.8906 133.778 49.3438C132.356 49.7812 130.879 50 129.348 50C127.817 50 126.325 49.7734 124.871 49.3203C123.418 48.8672 122.114 48.1875 120.957 47.2812C119.817 46.375 118.895 45.2344 118.192 43.8594C117.504 42.4844 117.161 40.8828 117.161 39.0547C117.161 37.3672 117.426 35.8906 117.957 34.625C118.504 33.3438 119.2 32.25 120.043 31.3438C120.903 30.4219 121.848 29.6641 122.879 29.0703C123.911 28.4766 124.918 28.0156 125.903 27.6875C125.293 27.375 124.692 26.9922 124.098 26.5391C123.52 26.0859 123.004 25.5781 122.551 25.0156C122.098 24.4531 121.731 23.8359 121.45 23.1641C121.184 22.4766 121.051 21.7422 121.051 20.9609C121.051 19.8672 121.286 18.875 121.754 17.9844C122.223 17.0938 122.832 16.3359 123.582 15.7109C124.348 15.0859 125.215 14.6094 126.184 14.2812C127.153 13.9375 128.145 13.7656 129.161 13.7656C130.379 13.7656 131.426 13.9062 132.301 14.1875C133.176 14.4531 133.887 14.8047 134.434 15.2422C134.981 15.6641 135.379 16.1484 135.629 16.6953C135.895 17.2422 136.028 17.7812 136.028 18.3125C136.028 18.7656 135.942 19.2031 135.77 19.625C135.614 20.0469 135.379 20.4219 135.067 20.75C134.77 21.0625 134.403 21.3125 133.965 21.5C133.528 21.6875 133.043 21.7812 132.512 21.7812C132.106 21.7812 131.739 21.7109 131.411 21.5703C131.082 21.4141 130.793 21.2422 130.543 21.0547C130.293 20.8672 130.09 20.6797 129.934 20.4922C129.778 20.3047 129.676 20.1719 129.629 20.0938L130.403 19.625C130.481 19.7031 130.59 19.7969 130.731 19.9062C130.887 20.0156 131.059 20.125 131.246 20.2344C131.434 20.3281 131.629 20.4141 131.832 20.4922C132.051 20.5547 132.278 20.5859 132.512 20.5859C133.137 20.5859 133.637 20.3594 134.012 19.9062C134.387 19.4531 134.575 18.9219 134.575 18.3125C134.575 17.9531 134.489 17.5938 134.317 17.2344C134.161 16.8594 133.911 16.5234 133.567 16.2266C133.223 15.9141 132.778 15.6641 132.231 15.4766C131.7 15.2891 131.059 15.1953 130.309 15.1953C129.325 15.1953 128.457 15.375 127.707 15.7344C126.957 16.0938 126.332 16.5781 125.832 17.1875C125.332 17.7812 124.95 18.4609 124.684 19.2266C124.434 19.9766 124.309 20.75 124.309 21.5469C124.309 22.1406 124.379 22.7188 124.52 23.2812C124.676 23.8438 124.895 24.375 125.176 24.875C125.473 25.3594 125.84 25.8047 126.278 26.2109C126.731 26.6016 127.262 26.9141 127.871 27.1484C128.184 27.0703 128.481 27.0234 128.762 27.0078C129.043 26.9766 129.301 26.9609 129.536 26.9609C129.942 26.9609 130.262 27.0234 130.496 27.1484C130.731 27.2578 130.848 27.4219 130.848 27.6406C130.848 27.9688 130.715 28.2188 130.45 28.3906C130.184 28.5625 129.832 28.6484 129.395 28.6484C129.129 28.6484 128.84 28.625 128.528 28.5781C128.231 28.5312 127.911 28.4531 127.567 28.3438C126.489 28.5938 125.543 29.0312 124.731 29.6562C123.918 30.2656 123.239 31 122.692 31.8594C122.145 32.7188 121.731 33.6641 121.45 34.6953C121.184 35.7109 121.051 36.75 121.051 37.8125C121.051 39.0938 121.246 40.3594 121.637 41.6094C122.043 42.8594 122.653 43.9766 123.465 44.9609C124.278 45.9453 125.286 46.7422 126.489 47.3516C127.692 47.9609 129.106 48.2656 130.731 48.2656C131.871 48.2656 132.973 48.0859 134.036 47.7266C135.114 47.3672 136.059 46.8359 136.871 46.1328C137.7 45.4297 138.364 44.5625 138.864 43.5312C139.364 42.5 139.614 41.3125 139.614 39.9688C139.614 38.8906 139.434 37.9453 139.075 37.1328C138.715 36.3047 138.239 35.6016 137.645 35.0234C137.004 35.2891 136.364 35.5547 135.723 35.8203C135.098 36.0859 134.45 36.3281 133.778 36.5469C133.121 36.7656 132.45 36.9453 131.762 37.0859C131.075 37.2109 130.364 37.2734 129.629 37.2734C129.067 37.2734 128.575 37.2031 128.153 37.0625C127.746 36.9219 127.403 36.7422 127.121 36.5234C126.856 36.2891 126.653 36.0234 126.512 35.7266C126.387 35.4297 126.325 35.1172 126.325 34.7891C126.325 34.2891 126.457 33.8438 126.723 33.4531C127.004 33.0625 127.379 32.7344 127.848 32.4688C128.317 32.1875 128.864 31.9766 129.489 31.8359C130.129 31.6953 130.801 31.625 131.504 31.625C132.254 31.625 133.028 31.7109 133.825 31.8828C134.637 32.0391 135.434 32.2891 136.215 32.6328C137.2 32.1484 138.239 31.7188 139.332 31.3438C140.426 30.9531 141.614 30.7578 142.895 30.7578C143.754 30.7578 144.496 30.875 145.121 31.1094C145.746 31.3281 146.262 31.6172 146.668 31.9766C147.09 32.3359 147.395 32.7422 147.582 33.1953C147.786 33.6484 147.887 34.1016 147.887 34.5547C147.887 34.9766 147.809 35.3828 147.653 35.7734C147.496 36.1641 147.262 36.5156 146.95 36.8281C146.653 37.1406 146.286 37.3906 145.848 37.5781C145.411 37.7656 144.918 37.8594 144.371 37.8594L144.278 36.8984ZM131.504 32.7266C130.614 32.7266 129.871 32.8516 129.278 33.1016C128.684 33.3359 128.387 33.6562 128.387 34.0625C128.387 34.3125 128.528 34.5234 128.809 34.6953C129.09 34.8516 129.543 34.9297 130.168 34.9297C130.887 34.9297 131.629 34.7734 132.395 34.4609C133.176 34.1484 134.004 33.7734 134.879 33.3359C134.286 33.1172 133.7 32.9609 133.121 32.8672C132.543 32.7734 132.004 32.7266 131.504 32.7266ZM176.739 40.4844C176.739 40.0625 176.723 39.6562 176.692 39.2656C176.676 38.8594 176.653 38.4453 176.621 38.0234C176.59 37.6016 176.551 37.1562 176.504 36.6875C176.457 36.2031 176.411 35.6641 176.364 35.0703C175.723 35.3203 175.043 35.5156 174.325 35.6562C173.606 35.7812 172.809 35.8438 171.934 35.8438C170.965 35.8438 170.036 35.6953 169.145 35.3984C168.254 35.0859 167.465 34.6328 166.778 34.0391C166.09 33.4453 165.536 32.7031 165.114 31.8125C164.707 30.9062 164.504 29.8516 164.504 28.6484C164.504 27.8828 164.59 27.1484 164.762 26.4453C164.95 25.7266 165.27 24.9766 165.723 24.1953C166.176 23.4141 166.778 22.5703 167.528 21.6641C168.293 20.7422 169.254 19.6953 170.411 18.5234C171.567 17.3516 172.934 16.0234 174.512 14.5391C176.106 13.0547 177.965 11.3516 180.09 9.42969L181.051 10.1562C180.707 10.625 180.403 11.1406 180.137 11.7031C179.871 12.2656 179.645 12.9141 179.457 13.6484C179.27 14.3828 179.129 15.2344 179.036 16.2031C178.942 17.1562 178.895 18.2656 178.895 19.5312C178.895 21.4219 178.965 23.3438 179.106 25.2969C179.246 27.2344 179.403 29.1328 179.575 30.9922C179.887 30.5547 180.161 30.0938 180.395 29.6094C180.645 29.125 180.864 28.6406 181.051 28.1562L182.012 28.6484C181.7 29.3984 181.356 30.1016 180.981 30.7578C180.621 31.4141 180.2 32.0234 179.715 32.5859C179.793 33.3828 179.871 34.1172 179.95 34.7891C180.028 35.4453 180.09 36.0625 180.137 36.6406C180.2 37.2188 180.246 37.7734 180.278 38.3047C180.325 38.8359 180.348 39.375 180.348 39.9219C180.348 41.6094 180.192 43.1094 179.879 44.4219C179.582 45.7344 178.996 46.875 178.121 47.8438C177.262 48.8281 176.036 49.6328 174.442 50.2578C172.864 50.8828 170.989 51.1953 168.817 51.1953C167.473 51.1953 166.192 51.0078 164.973 50.6328C163.754 50.2578 162.684 49.7344 161.762 49.0625C160.84 48.3906 160.106 47.5859 159.559 46.6484C159.012 45.7109 158.739 44.6719 158.739 43.5312C158.739 42.6875 158.879 41.9297 159.161 41.2578C159.426 40.5859 159.778 39.9922 160.215 39.4766C160.653 38.9453 161.129 38.4922 161.645 38.1172C162.176 37.7422 162.692 37.4297 163.192 37.1797C163.692 36.9297 164.145 36.7344 164.551 36.5938C164.957 36.4531 165.262 36.3594 165.465 36.3125L165.934 37.2734C165.575 37.4609 165.168 37.7188 164.715 38.0469C164.278 38.3594 163.864 38.7656 163.473 39.2656C163.082 39.75 162.754 40.3438 162.489 41.0469C162.223 41.75 162.09 42.5781 162.09 43.5312C162.09 44.5469 162.262 45.4609 162.606 46.2734C162.95 47.0703 163.426 47.75 164.036 48.3125C164.661 48.8594 165.395 49.2812 166.239 49.5781C167.098 49.8594 168.036 50 169.051 50C170.192 50 171.231 49.8438 172.168 49.5312C173.121 49.2188 173.934 48.6953 174.606 47.9609C175.278 47.2266 175.801 46.25 176.176 45.0312C176.551 43.8125 176.739 42.2969 176.739 40.4844ZM176.739 14.2344C175.52 15.4062 174.442 16.4609 173.504 17.3984C172.567 18.3359 171.746 19.1953 171.043 19.9766C170.356 20.7578 169.778 21.4844 169.309 22.1562C168.84 22.8125 168.465 23.4609 168.184 24.1016C167.903 24.7422 167.7 25.3906 167.575 26.0469C167.45 26.7031 167.387 27.4062 167.387 28.1562C167.387 30.4375 167.895 32.0938 168.911 33.125C169.926 34.1406 171.332 34.6484 173.129 34.6484C173.723 34.6484 174.278 34.5938 174.793 34.4844C175.325 34.3594 175.817 34.1875 176.27 33.9688C176.161 32.8906 176.043 31.8125 175.918 30.7344C175.809 29.6406 175.707 28.5938 175.614 27.5938C175.52 26.5781 175.442 25.625 175.379 24.7344C175.332 23.8438 175.309 23.0625 175.309 22.3906C175.309 21.7188 175.34 20.9844 175.403 20.1875C175.481 19.3906 175.582 18.6172 175.707 17.8672C175.832 17.1016 175.981 16.3984 176.153 15.7578C176.325 15.1016 176.52 14.5937 176.739 14.2344ZM193.426 32.4219C192.989 32.4219 192.496 32.6172 191.95 33.0078C191.418 33.3984 190.879 33.9062 190.332 34.5312C189.786 35.1406 189.254 35.8281 188.739 36.5938C188.239 37.3594 187.801 38.1172 187.426 38.8672C187.379 40.2422 187.332 41.7422 187.286 43.3672C187.254 44.9922 187.239 46.7266 187.239 48.5703C187.239 48.8047 187.129 49.0156 186.911 49.2031C186.707 49.375 186.465 49.5234 186.184 49.6484C185.903 49.7578 185.614 49.8438 185.317 49.9062C185.02 49.9688 184.778 50 184.59 50C184.356 50 184.137 49.9297 183.934 49.7891C183.731 49.6484 183.629 49.3359 183.629 48.8516C183.629 48.6172 183.653 48.3281 183.7 47.9844C183.746 47.625 183.809 47.2422 183.887 46.8359C183.95 46.4297 184.028 46.0156 184.121 45.5938C184.2 45.1562 184.278 44.75 184.356 44.375V32.9141C184.356 32.6016 184.364 32.3594 184.379 32.1875C184.379 32 184.403 31.8594 184.45 31.7656C184.543 31.5469 184.707 31.375 184.942 31.25C185.176 31.125 185.426 31.0312 185.692 30.9688C185.957 30.8906 186.215 30.8438 186.465 30.8281C186.715 30.8125 186.911 30.8047 187.051 30.8047C187.317 30.8047 187.496 30.875 187.59 31.0156C187.7 31.1562 187.754 31.4062 187.754 31.7656C187.754 31.7188 187.715 32.1016 187.637 32.9141C187.575 33.7266 187.52 34.8906 187.473 36.4062C187.942 35.6719 188.45 34.9688 188.996 34.2969C189.543 33.625 190.114 33.0312 190.707 32.5156C191.301 32 191.911 31.5859 192.536 31.2734C193.176 30.9609 193.825 30.8047 194.481 30.8047C195.653 30.8047 196.512 31.1797 197.059 31.9297C197.606 32.6641 197.879 33.6641 197.879 34.9297C197.879 35.7266 197.825 36.6172 197.715 37.6016C197.621 38.5703 197.504 39.5625 197.364 40.5781C197.239 41.5781 197.121 42.5625 197.012 43.5312C196.918 44.4844 196.871 45.3594 196.871 46.1562C196.871 47.1875 197.192 47.7031 197.832 47.7031C198.036 47.7031 198.27 47.6016 198.536 47.3984C198.817 47.1797 199.161 46.7812 199.567 46.2031C199.989 45.625 200.489 44.8359 201.067 43.8359C201.645 42.8203 202.332 41.5156 203.129 39.9219L203.364 39.4297L204.325 40.1562L204.09 40.6484C203.153 42.5234 202.317 44.0625 201.582 45.2656C200.864 46.4688 200.207 47.4219 199.614 48.125C199.02 48.8281 198.465 49.3203 197.95 49.6016C197.434 49.8672 196.918 50 196.403 50C196.075 50 195.746 49.9531 195.418 49.8594C195.09 49.7656 194.801 49.6016 194.551 49.3672C194.301 49.1328 194.098 48.8203 193.942 48.4297C193.786 48.0234 193.707 47.5078 193.707 46.8828C193.707 45.9453 193.77 44.8906 193.895 43.7188C194.02 42.5469 194.161 41.375 194.317 40.2031C194.473 39.0312 194.614 37.9297 194.739 36.8984C194.864 35.8516 194.926 35 194.926 34.3438C194.926 33.7656 194.801 33.3047 194.551 32.9609C194.301 32.6016 193.926 32.4219 193.426 32.4219ZM223.215 40.1562L222.981 40.6484C222.325 41.9609 221.7 43.1875 221.106 44.3281C220.512 45.4688 219.918 46.4609 219.325 47.3047C218.731 48.1484 218.121 48.8125 217.496 49.2969C216.887 49.7656 216.231 50 215.528 50C214.825 50 214.137 49.8125 213.465 49.4375C212.793 49.0625 212.121 48.5391 211.45 47.8672C210.793 47.1953 210.129 46.4141 209.457 45.5234C208.801 44.6172 208.121 43.6328 207.418 42.5703L206.598 42.7109C206.567 44.0859 206.52 45.3281 206.457 46.4375C206.395 47.5312 206.317 48.4297 206.223 49.1328C206.176 49.4453 206.043 49.6719 205.825 49.8125C205.621 49.9375 205.34 50 204.981 50C204.559 50 204.207 49.9453 203.926 49.8359C203.645 49.7266 203.426 49.5938 203.27 49.4375C203.098 49.2656 202.981 49.0859 202.918 48.8984C202.84 48.6953 202.801 48.5 202.801 48.3125C202.801 47.3125 202.965 46.0703 203.293 44.5859V32.4688C203.293 29.4688 203.45 26.875 203.762 24.6875C204.075 22.4844 204.496 20.6641 205.028 19.2266C205.559 17.7734 206.176 16.7031 206.879 16.0156C207.598 15.3125 208.356 14.9609 209.153 14.9609C210.012 14.9609 210.621 15.2422 210.981 15.8047C211.356 16.3516 211.543 17.1094 211.543 18.0781C211.543 18.9219 211.418 20.0078 211.168 21.3359C210.918 22.6484 210.567 24.0938 210.114 25.6719C209.676 27.25 209.161 28.8984 208.567 30.6172C207.973 32.3203 207.332 33.9844 206.645 35.6094V36.125C207.082 35.4219 207.59 34.75 208.168 34.1094C208.762 33.4688 209.395 32.9062 210.067 32.4219C210.739 31.9219 211.426 31.5312 212.129 31.25C212.848 30.9531 213.551 30.8047 214.239 30.8047C214.848 30.8047 215.403 30.8906 215.903 31.0625C216.418 31.2344 216.864 31.4844 217.239 31.8125C217.614 32.1406 217.903 32.5547 218.106 33.0547C218.309 33.5391 218.411 34.1016 218.411 34.7422C218.411 35.3984 218.262 36.0547 217.965 36.7109C217.684 37.3672 217.231 38 216.606 38.6094C215.996 39.2188 215.207 39.7969 214.239 40.3438C213.27 40.875 212.098 41.3438 210.723 41.75C210.817 41.8906 210.973 42.125 211.192 42.4531C211.411 42.7812 211.668 43.1562 211.965 43.5781C212.278 43.9844 212.614 44.4141 212.973 44.8672C213.332 45.3047 213.7 45.7109 214.075 46.0859C214.465 46.4453 214.848 46.75 215.223 47C215.598 47.2344 215.942 47.3516 216.254 47.3516C216.676 47.3516 217.106 47.1797 217.543 46.8359C217.981 46.4766 218.434 45.9766 218.903 45.3359C219.387 44.6797 219.887 43.8984 220.403 42.9922C220.918 42.0703 221.457 41.0469 222.02 39.9219L222.254 39.4297L223.215 40.1562ZM206.645 38.1406C206.645 38.5 206.637 38.8203 206.621 39.1016C206.621 39.3672 206.621 39.6328 206.621 39.8984C206.621 40.1484 206.614 40.4062 206.598 40.6719C206.598 40.9375 206.598 41.2344 206.598 41.5625C208.192 41.3281 209.536 41.0156 210.629 40.625C211.739 40.2344 212.637 39.7812 213.325 39.2656C214.012 38.75 214.512 38.1875 214.825 37.5781C215.137 36.9531 215.293 36.2969 215.293 35.6094C215.293 35.25 215.231 34.9062 215.106 34.5781C214.996 34.2344 214.832 33.9375 214.614 33.6875C214.395 33.4219 214.121 33.2109 213.793 33.0547C213.481 32.8984 213.129 32.8203 212.739 32.8203C212.192 32.8203 211.637 32.9688 211.075 33.2656C210.528 33.5469 209.981 33.9297 209.434 34.4141C208.903 34.8984 208.395 35.4688 207.911 36.125C207.442 36.7656 207.02 37.4375 206.645 38.1406ZM208.707 16.1562C208.379 16.1562 208.09 16.4766 207.84 17.1172C207.606 17.7578 207.403 18.7578 207.231 20.1172C207.059 21.4609 206.918 23.1797 206.809 25.2734C206.7 27.3516 206.614 29.8359 206.551 32.7266C207.207 30.9922 207.739 29.3672 208.145 27.8516C208.551 26.3203 208.864 24.9453 209.082 23.7266C209.317 22.4922 209.473 21.4219 209.551 20.5156C209.629 19.5938 209.668 18.8594 209.668 18.3125C209.668 17.4844 209.59 16.9219 209.434 16.625C209.293 16.3125 209.051 16.1562 208.707 16.1562Z" fill="#FBFCF5"/>
</svg>
