<svg width="245" height="80" viewBox="0 0 245 80" fill="none" xmlns="http://www.w3.org/2000/svg">
<path d="M22.7656 23.3984C23.125 23.1328 23.4453 22.8125 23.7266 22.4375C24.0234 22.0625 24.2734 21.6562 24.4766 21.2188C24.6797 20.7812 24.8359 20.3203 24.9453 19.8359C25.0547 19.3516 25.1094 18.8594 25.1094 18.3594C25.1094 17.6094 24.9766 16.8672 24.7109 16.1328C24.4609 15.3828 24.0469 14.7109 23.4688 14.1172C22.9062 13.5078 22.1719 13.0156 21.2656 12.6406C20.3594 12.2656 19.2578 12.0781 17.9609 12.0781C16.5234 12.0781 15.1641 12.3125 13.8828 12.7812C12.6016 13.25 11.4766 13.8828 10.5078 14.6797C9.55469 15.4766 8.79688 16.3984 8.23438 17.4453C7.67188 18.4922 7.39062 19.5859 7.39062 20.7266C7.39062 21.9297 7.67188 23 8.23438 23.9375C8.8125 24.8594 9.5625 25.7031 10.4844 26.4688C11.4219 27.2188 12.4844 27.9141 13.6719 28.5547C14.8594 29.1953 16.0703 29.8281 17.3047 30.4531C18.5391 31.0781 19.75 31.7344 20.9375 32.4219C22.125 33.0938 23.1797 33.8516 24.1016 34.6953C25.0391 35.5391 25.7891 36.4844 26.3516 37.5312C26.9297 38.5781 27.2188 39.7891 27.2188 41.1641C27.2188 42.4766 26.9062 43.7344 26.2812 44.9375C25.6562 46.1406 24.7969 47.2109 23.7031 48.1484C22.6094 49.0703 21.3203 49.8047 19.8359 50.3516C18.3672 50.9141 16.7812 51.1953 15.0781 51.1953C13.1719 51.1953 11.5938 50.9844 10.3438 50.5625C9.10938 50.1562 8.125 49.6406 7.39062 49.0156C6.67188 48.3906 6.17188 47.7188 5.89062 47C5.60938 46.2656 5.46875 45.5859 5.46875 44.9609C5.46875 44.1953 5.58594 43.5078 5.82031 42.8984C6.07031 42.2734 6.39844 41.7188 6.80469 41.2344C7.21094 40.7344 7.66406 40.3047 8.16406 39.9453C8.67969 39.5703 9.20312 39.2578 9.73438 39.0078C10.2812 38.7422 10.8047 38.5312 11.3047 38.375C11.8203 38.2031 12.2812 38.0781 12.6875 38L12.9219 39.1953C12.7344 39.2578 12.3906 39.4141 11.8906 39.6641C11.4062 39.8984 10.8984 40.25 10.3672 40.7188C9.83594 41.1719 9.36719 41.7422 8.96094 42.4297C8.55469 43.1172 8.35156 43.9297 8.35156 44.8672C8.35156 45.5078 8.48438 46.1328 8.75 46.7422C9.03125 47.3516 9.44531 47.8984 9.99219 48.3828C10.5391 48.8672 11.2109 49.2578 12.0078 49.5547C12.8047 49.8516 13.7344 50 14.7969 50C16.0781 50 17.1953 49.8828 18.1484 49.6484C19.1172 49.3984 19.9453 49.0781 20.6328 48.6875C21.3359 48.2969 21.9062 47.8516 22.3438 47.3516C22.7969 46.8359 23.1484 46.3047 23.3984 45.7578C23.6641 45.2109 23.8438 44.6719 23.9375 44.1406C24.0469 43.5938 24.1016 43.1016 24.1016 42.6641C24.1016 41.4766 23.8281 40.4375 23.2812 39.5469C22.7344 38.6406 22.0078 37.8359 21.1016 37.1328C20.2109 36.4141 19.1953 35.7656 18.0547 35.1875C16.9141 34.5938 15.7422 34.0078 14.5391 33.4297C13.3516 32.8516 12.1875 32.25 11.0469 31.625C9.90625 31 8.88281 30.2891 7.97656 29.4922C7.08594 28.6953 6.36719 27.7891 5.82031 26.7734C5.27344 25.7422 5 24.5391 5 23.1641C5 21.3203 5.38281 19.6328 6.14844 18.1016C6.91406 16.5547 7.94531 15.2344 9.24219 14.1406C10.5391 13.0313 12.0391 12.1719 13.7422 11.5625C15.4609 10.9531 17.2656 10.6484 19.1562 10.6484C20.7656 10.6484 22.1406 10.8359 23.2812 11.2109C24.4219 11.5859 25.3516 12.0781 26.0703 12.6875C26.8047 13.2969 27.3359 13.9922 27.6641 14.7734C28.0078 15.5547 28.1797 16.3516 28.1797 17.1641C28.1797 18.1328 28.0078 19.0156 27.6641 19.8125C27.3359 20.6094 26.9297 21.3203 26.4453 21.9453C25.9766 22.5547 25.4688 23.0703 24.9219 23.4922C24.375 23.8984 23.8906 24.1875 23.4688 24.3594L22.7656 23.3984ZM42.2656 46.0625C41.6562 47.3438 40.8828 48.3203 39.9453 48.9922C39.0234 49.6641 38 50 36.875 50C35.8594 50 34.9531 49.7812 34.1562 49.3438C33.375 48.8906 32.7109 48.2812 32.1641 47.5156C31.6328 46.7344 31.2266 45.8359 30.9453 44.8203C30.6797 43.8047 30.5469 42.7188 30.5469 41.5625C30.5469 39.75 30.7578 38.1719 31.1797 36.8281C31.6172 35.4688 32.1719 34.3438 32.8438 33.4531C33.5312 32.5625 34.2969 31.8984 35.1406 31.4609C35.9844 31.0234 36.8203 30.8047 37.6484 30.8047C38.2422 30.8047 38.7891 30.8984 39.2891 31.0859C39.7891 31.2734 40.2344 31.5156 40.625 31.8125C41.0312 32.1094 41.375 32.4453 41.6562 32.8203C41.9375 33.1797 42.1562 33.5312 42.3125 33.875C42.3438 33.25 42.4062 32.7422 42.5 32.3516C42.5938 31.9453 42.7266 31.6328 42.8984 31.4141C43.0859 31.1797 43.3203 31.0234 43.6016 30.9453C43.8828 30.8516 44.2344 30.8047 44.6562 30.8047C45.0156 30.8047 45.2656 30.8672 45.4062 30.9922C45.5469 31.1016 45.6172 31.2812 45.6172 31.5312C45.6172 31.6562 45.6016 31.8438 45.5703 32.0938C45.5547 32.3281 45.5312 32.6562 45.5 33.0781C45.4688 33.5 45.4375 34.0156 45.4062 34.625C45.3906 35.2344 45.3828 35.9609 45.3828 36.8047V47.0703C45.6797 46.7266 45.9922 46.3438 46.3203 45.9219C46.6484 45.4844 46.9922 44.9844 47.3516 44.4219C47.7266 43.8594 48.1172 43.2109 48.5234 42.4766C48.9453 41.7422 49.3984 40.8906 49.8828 39.9219L50.1172 39.4297L51.0781 40.1562L50.8438 40.6484C49.875 42.5391 48.9062 44.1875 47.9375 45.5938C46.9844 47 46.1328 48.1484 45.3828 49.0391V57.6875C45.3828 58.5781 45.3438 59.3047 45.2656 59.8672C45.2031 60.4297 45.0781 60.8672 44.8906 61.1797C44.7188 61.5078 44.4766 61.7266 44.1641 61.8359C43.8516 61.9453 43.4531 62 42.9688 62C42.6094 62 42.3594 61.9375 42.2188 61.8125C42.0781 61.7031 42.0078 61.5234 42.0078 61.2734C42.0078 61.1641 42.0156 60.9844 42.0312 60.7344C42.0625 60.4844 42.0938 60.1484 42.125 59.7266C42.1719 59.3047 42.2031 58.7891 42.2188 58.1797C42.25 57.5703 42.2656 56.8438 42.2656 56V46.0625ZM42.3125 38.9609C42.3125 38.3047 42.2188 37.5859 42.0312 36.8047C41.8438 36.0078 41.5703 35.2734 41.2109 34.6016C40.8516 33.9297 40.3984 33.3672 39.8516 32.9141C39.3047 32.4609 38.6797 32.2344 37.9766 32.2344C37.4297 32.2344 36.8984 32.3672 36.3828 32.6328C35.8672 32.8828 35.4062 33.3125 35 33.9219C34.6094 34.5156 34.2891 35.3125 34.0391 36.3125C33.7891 37.3125 33.6641 38.5469 33.6641 40.0156C33.6641 41.2969 33.7891 42.3984 34.0391 43.3203C34.2891 44.2422 34.6172 45.0078 35.0234 45.6172C35.4453 46.2109 35.9141 46.6484 36.4297 46.9297C36.9453 47.2109 37.4766 47.3516 38.0234 47.3516C38.6484 47.3516 39.2188 47.2266 39.7344 46.9766C40.25 46.7266 40.6953 46.3125 41.0703 45.7344C41.4453 45.1562 41.7344 44.3984 41.9375 43.4609C42.1562 42.5234 42.2812 41.375 42.3125 40.0156V38.9609ZM59.75 44.9141C59.6719 45.0391 59.5547 45.2578 59.3984 45.5703C59.2578 45.8672 59.0703 46.2031 58.8359 46.5781C58.6172 46.9531 58.3516 47.3438 58.0391 47.75C57.7422 48.1562 57.3984 48.5234 57.0078 48.8516C56.6172 49.1797 56.1797 49.4531 55.6953 49.6719C55.2266 49.8906 54.7031 50 54.125 50C53.6719 50 53.2031 49.9062 52.7188 49.7188C52.2344 49.5312 51.7812 49.1875 51.3594 48.6875C50.9531 48.1875 50.6172 47.5078 50.3516 46.6484C50.0859 45.7734 49.9531 44.6484 49.9531 43.2734C49.9531 41.9609 50 40.6484 50.0938 39.3359C50.1875 38.0078 50.2969 36.7969 50.4219 35.7031C50.5625 34.6094 50.6953 33.6953 50.8203 32.9609C50.9453 32.2266 51.0391 31.7812 51.1016 31.625C51.1641 31.4844 51.2891 31.3594 51.4766 31.25C51.6641 31.1406 51.875 31.0547 52.1094 30.9922C52.3594 30.9297 52.6094 30.8828 52.8594 30.8516C53.125 30.8203 53.3516 30.8047 53.5391 30.8047C53.7891 30.8047 53.9844 30.8672 54.125 30.9922C54.2812 31.1172 54.3594 31.3281 54.3594 31.625C54.3594 31.7656 54.3281 32.0469 54.2656 32.4688C54.2188 32.875 54.1562 33.375 54.0781 33.9688C54 34.5625 53.9141 35.2188 53.8203 35.9375C53.7422 36.6562 53.6641 37.3906 53.5859 38.1406C53.5078 38.875 53.4375 39.6094 53.375 40.3438C53.3281 41.0625 53.3047 41.7188 53.3047 42.3125C53.3047 44.0156 53.4844 45.2812 53.8438 46.1094C54.2188 46.9375 54.8281 47.3516 55.6719 47.3516C56.3906 47.3516 57.1172 46.8281 57.8516 45.7812C58.6016 44.7344 59.25 43.2109 59.7969 41.2109C59.875 40.3672 59.9453 39.4688 60.0078 38.5156C60.0859 37.5469 60.1562 36.6328 60.2188 35.7734C60.2812 34.8984 60.3359 34.1172 60.3828 33.4297C60.4453 32.7422 60.5 32.25 60.5469 31.9531C60.5938 31.7344 60.7188 31.5547 60.9219 31.4141C61.125 31.2578 61.3516 31.1406 61.6016 31.0625C61.8672 30.9688 62.1172 30.9062 62.3516 30.875C62.6016 30.8281 62.7891 30.8047 62.9141 30.8047C63.1797 30.8047 63.3594 30.8672 63.4531 30.9922C63.5625 31.1016 63.6172 31.2812 63.6172 31.5312C63.6172 31.75 63.5938 32.1719 63.5469 32.7969C63.5156 33.4062 63.4688 34.125 63.4062 34.9531C63.3594 35.7656 63.3047 36.6406 63.2422 37.5781C63.1797 38.5156 63.1172 39.4219 63.0547 40.2969C63.0078 41.1562 62.9609 41.9375 62.9141 42.6406C62.8828 43.3438 62.8672 43.875 62.8672 44.2344C62.8672 45.2969 62.9219 46.1328 63.0312 46.7422C63.1562 47.3516 63.4219 47.6562 63.8281 47.6562C64.125 47.6562 64.4453 47.4688 64.7891 47.0938C65.1484 46.7031 65.5312 46.1641 65.9375 45.4766C66.3594 44.7891 66.8125 43.9766 67.2969 43.0391C67.7812 42.0859 68.3047 41.0469 68.8672 39.9219L69.1016 39.4297L70.0625 40.1562L69.8281 40.6484C69.0781 42.1328 68.4141 43.4609 67.8359 44.6328C67.2734 45.7891 66.7344 46.7656 66.2188 47.5625C65.7031 48.3594 65.1797 48.9688 64.6484 49.3906C64.1172 49.7969 63.5234 50 62.8672 50C62.2578 50 61.75 49.8828 61.3438 49.6484C60.9531 49.4141 60.6406 49.0781 60.4062 48.6406C60.1719 48.2031 60 47.6719 59.8906 47.0469C59.7969 46.4219 59.75 45.7109 59.75 44.9141ZM70.3203 39.6875L70.0859 40.1562L69.8516 40.6484L68.8906 39.9219L69.125 39.4297C69.5156 38.6328 69.8359 37.8359 70.0859 37.0391C70.3516 36.2266 70.5625 35.4688 70.7188 34.7656C70.8906 34.0625 71.0312 33.4453 71.1406 32.9141C71.25 32.3828 71.3594 32 71.4688 31.7656C71.5625 31.5781 71.6953 31.4297 71.8672 31.3203C72.0547 31.1953 72.2422 31.0938 72.4297 31.0156C72.6328 30.9375 72.8203 30.8828 72.9922 30.8516C73.1797 30.8203 73.3125 30.8047 73.3906 30.8047C73.7344 30.8047 73.9609 30.875 74.0703 31.0156C74.1953 31.1562 74.2578 31.4062 74.2578 31.7656C74.2578 31.9375 74.2188 32.3672 74.1406 33.0547C74.0781 33.7266 74 34.5781 73.9062 35.6094C73.8281 36.625 73.75 37.7734 73.6719 39.0547C73.6094 40.3203 73.5781 41.6328 73.5781 42.9922C73.5781 43.9766 73.625 44.7578 73.7188 45.3359C73.8125 45.8984 73.9297 46.3203 74.0703 46.6016C74.2266 46.8828 74.3906 47.0625 74.5625 47.1406C74.75 47.2188 74.9375 47.2578 75.125 47.2578C75.375 47.2578 75.6562 47.1484 75.9688 46.9297C76.2812 46.7109 76.6484 46.3281 77.0703 45.7812C77.4922 45.2188 77.9766 44.4688 78.5234 43.5312C79.0703 42.5781 79.7109 41.375 80.4453 39.9219L80.7031 39.4297L81.6641 40.1562L81.4062 40.6484C80.8125 41.8047 80.2188 42.9453 79.625 44.0703C79.0469 45.1953 78.4531 46.1953 77.8438 47.0703C77.25 47.9453 76.6484 48.6562 76.0391 49.2031C75.4297 49.7344 74.8203 50 74.2109 50C73.5703 50 73.0156 49.875 72.5469 49.625C72.0938 49.3594 71.7109 48.9297 71.3984 48.3359C71.1016 47.7422 70.875 46.9609 70.7188 45.9922C70.5781 45.0078 70.5078 43.7969 70.5078 42.3594C70.5078 41.9531 70.5078 41.5312 70.5078 41.0938C70.5078 40.6406 70.5234 40.1719 70.5547 39.6875H70.3203ZM75.125 26C75.125 26.5469 74.9375 27.0078 74.5625 27.3828C74.2031 27.7422 73.75 27.9219 73.2031 27.9219C72.6719 27.9219 72.2188 27.7422 71.8438 27.3828C71.4688 27.0078 71.2812 26.5469 71.2812 26C71.2812 25.4688 71.4688 25.0156 71.8438 24.6406C72.2188 24.2656 72.6719 24.0781 73.2031 24.0781C73.75 24.0781 74.2031 24.2656 74.5625 24.6406C74.9375 25.0156 75.125 25.4688 75.125 26ZM85.4609 50C84.5078 50 83.6797 49.7969 82.9766 49.3906C82.2891 48.9844 81.7188 48.4375 81.2656 47.75C80.8125 47.0469 80.4766 46.2422 80.2578 45.3359C80.0391 44.4297 79.9297 43.4688 79.9297 42.4531C79.9297 41.5625 80.0156 40.6562 80.1875 39.7344C80.3594 38.8125 80.6016 37.9219 80.9141 37.0625C81.2422 36.1875 81.6484 35.375 82.1328 34.625C82.6172 33.8594 83.1719 33.1953 83.7969 32.6328C84.4219 32.0703 85.1172 31.625 85.8828 31.2969C86.6641 30.9688 87.5 30.8047 88.3906 30.8047C89.4062 30.8047 90.2656 31.0312 90.9688 31.4844C91.6875 31.9375 92.2656 32.4922 92.7031 33.1484C92.7188 30.1953 92.8672 27.5859 93.1484 25.3203C93.4297 23.0547 93.8203 21.1562 94.3203 19.625C94.8359 18.0938 95.4453 16.9375 96.1484 16.1562C96.8516 15.3594 97.625 14.9609 98.4688 14.9609C98.7656 14.9609 99.0312 15 99.2656 15.0781C99.5156 15.1406 99.7188 15.2656 99.875 15.4531C100.047 15.6406 100.172 15.8984 100.25 16.2266C100.344 16.5391 100.391 16.9453 100.391 17.4453C100.391 18.4766 100.289 19.6641 100.086 21.0078C99.8828 22.3359 99.5938 23.7891 99.2188 25.3672C98.8438 26.9297 98.3828 28.6016 97.8359 30.3828C97.3047 32.1484 96.7109 33.9844 96.0547 35.8906C96.0703 37.5625 96.0938 39.0078 96.125 40.2266C96.1562 41.4453 96.1953 42.4766 96.2422 43.3203C96.3047 44.1641 96.375 44.8516 96.4531 45.3828C96.5469 45.9141 96.6484 46.3281 96.7578 46.625C96.8828 46.9062 97.0234 47.1016 97.1797 47.2109C97.3516 47.3047 97.5391 47.3516 97.7422 47.3516C98.1016 47.3516 98.4609 47.1953 98.8203 46.8828C99.1953 46.5547 99.5938 46.0781 100.016 45.4531C100.438 44.8125 100.891 44.0312 101.375 43.1094C101.875 42.1875 102.422 41.125 103.016 39.9219L103.273 39.4297L104.234 40.1562L103.977 40.6484C103.07 42.4766 102.273 43.9922 101.586 45.1953C100.898 46.3828 100.266 47.3359 99.6875 48.0547C99.125 48.7734 98.5859 49.2812 98.0703 49.5781C97.5547 49.8594 97.0156 50 96.4531 50C95.9062 50 95.4297 49.8672 95.0234 49.6016C94.6328 49.3203 94.2969 48.8906 94.0156 48.3125C93.7344 47.7188 93.5078 46.9688 93.3359 46.0625C93.1641 45.1406 93.0312 44.0391 92.9375 42.7578C92.3906 43.8516 91.8281 44.8438 91.25 45.7344C90.6719 46.625 90.0703 47.3906 89.4453 48.0312C88.8359 48.6562 88.1953 49.1406 87.5234 49.4844C86.8516 49.8281 86.1641 50 85.4609 50ZM88.8594 32C88 32 87.25 32.2656 86.6094 32.7969C85.9688 33.3125 85.4375 33.9922 85.0156 34.8359C84.5938 35.6641 84.2812 36.6016 84.0781 37.6484C83.875 38.6953 83.7734 39.7422 83.7734 40.7891C83.7734 41.6484 83.8359 42.4766 83.9609 43.2734C84.1016 44.0547 84.3047 44.75 84.5703 45.3594C84.8516 45.9688 85.1875 46.4531 85.5781 46.8125C85.9688 47.1719 86.4219 47.3516 86.9375 47.3516C87.4375 47.3516 87.9219 47.2266 88.3906 46.9766C88.875 46.7266 89.3516 46.3281 89.8203 45.7812C90.2891 45.2188 90.7656 44.5 91.25 43.625C91.7344 42.7344 92.25 41.6562 92.7969 40.3906C92.7656 39.6406 92.7422 38.8438 92.7266 38C92.7109 37.1406 92.7031 36.2266 92.7031 35.2578C92.3594 34.2422 91.8359 33.4453 91.1328 32.8672C90.4453 32.2891 89.6875 32 88.8594 32ZM98.7031 18.3125C98.7031 17.5938 98.6172 17.0938 98.4453 16.8125C98.2891 16.5312 98.1016 16.3906 97.8828 16.3906C97.5078 16.3906 97.2031 16.7578 96.9688 17.4922C96.7344 18.2109 96.5469 19.1875 96.4062 20.4219C96.2812 21.6562 96.1875 23.0859 96.125 24.7109C96.0781 26.3359 96.0547 28.0469 96.0547 29.8438V32.4219C96.5391 30.8438 96.9531 29.4219 97.2969 28.1562C97.6406 26.8906 97.9141 25.7109 98.1172 24.6172C98.3203 23.5234 98.4688 22.4688 98.5625 21.4531C98.6562 20.4375 98.7031 19.3906 98.7031 18.3125ZM144.359 36.8984C144.953 36.8984 145.438 36.7344 145.812 36.4062C146.188 36.0781 146.375 35.7109 146.375 35.3047C146.375 35.1016 146.312 34.8984 146.188 34.6953C146.078 34.4922 145.898 34.3125 145.648 34.1562C145.414 34 145.094 33.875 144.688 33.7812C144.297 33.6875 143.82 33.6406 143.258 33.6406C142.523 33.6406 141.812 33.7266 141.125 33.8984C140.438 34.0703 139.742 34.2891 139.039 34.5547C139.695 35.2109 140.219 35.9766 140.609 36.8516C141 37.7109 141.195 38.7031 141.195 39.8281C141.195 41.4688 140.867 42.9219 140.211 44.1875C139.57 45.4531 138.703 46.5156 137.609 47.375C136.531 48.2344 135.281 48.8906 133.859 49.3438C132.438 49.7812 130.961 50 129.43 50C127.898 50 126.406 49.7734 124.953 49.3203C123.5 48.8672 122.195 48.1875 121.039 47.2812C119.898 46.375 118.977 45.2344 118.273 43.8594C117.586 42.4844 117.242 40.8828 117.242 39.0547C117.242 37.3672 117.508 35.8906 118.039 34.625C118.586 33.3438 119.281 32.25 120.125 31.3438C120.984 30.4219 121.93 29.6641 122.961 29.0703C123.992 28.4766 125 28.0156 125.984 27.6875C125.375 27.375 124.773 26.9922 124.18 26.5391C123.602 26.0859 123.086 25.5781 122.633 25.0156C122.18 24.4531 121.812 23.8359 121.531 23.1641C121.266 22.4766 121.133 21.7422 121.133 20.9609C121.133 19.8672 121.367 18.875 121.836 17.9844C122.305 17.0938 122.914 16.3359 123.664 15.7109C124.43 15.0859 125.297 14.6094 126.266 14.2812C127.234 13.9375 128.227 13.7656 129.242 13.7656C130.461 13.7656 131.508 13.9062 132.383 14.1875C133.258 14.4531 133.969 14.8047 134.516 15.2422C135.062 15.6641 135.461 16.1484 135.711 16.6953C135.977 17.2422 136.109 17.7812 136.109 18.3125C136.109 18.7656 136.023 19.2031 135.852 19.625C135.695 20.0469 135.461 20.4219 135.148 20.75C134.852 21.0625 134.484 21.3125 134.047 21.5C133.609 21.6875 133.125 21.7812 132.594 21.7812C132.188 21.7812 131.82 21.7109 131.492 21.5703C131.164 21.4141 130.875 21.2422 130.625 21.0547C130.375 20.8672 130.172 20.6797 130.016 20.4922C129.859 20.3047 129.758 20.1719 129.711 20.0938L130.484 19.625C130.562 19.7031 130.672 19.7969 130.812 19.9062C130.969 20.0156 131.141 20.125 131.328 20.2344C131.516 20.3281 131.711 20.4141 131.914 20.4922C132.133 20.5547 132.359 20.5859 132.594 20.5859C133.219 20.5859 133.719 20.3594 134.094 19.9062C134.469 19.4531 134.656 18.9219 134.656 18.3125C134.656 17.9531 134.57 17.5938 134.398 17.2344C134.242 16.8594 133.992 16.5234 133.648 16.2266C133.305 15.9141 132.859 15.6641 132.312 15.4766C131.781 15.2891 131.141 15.1953 130.391 15.1953C129.406 15.1953 128.539 15.375 127.789 15.7344C127.039 16.0938 126.414 16.5781 125.914 17.1875C125.414 17.7812 125.031 18.4609 124.766 19.2266C124.516 19.9766 124.391 20.75 124.391 21.5469C124.391 22.1406 124.461 22.7188 124.602 23.2812C124.758 23.8438 124.977 24.375 125.258 24.875C125.555 25.3594 125.922 25.8047 126.359 26.2109C126.812 26.6016 127.344 26.9141 127.953 27.1484C128.266 27.0703 128.562 27.0234 128.844 27.0078C129.125 26.9766 129.383 26.9609 129.617 26.9609C130.023 26.9609 130.344 27.0234 130.578 27.1484C130.812 27.2578 130.93 27.4219 130.93 27.6406C130.93 27.9688 130.797 28.2188 130.531 28.3906C130.266 28.5625 129.914 28.6484 129.477 28.6484C129.211 28.6484 128.922 28.625 128.609 28.5781C128.312 28.5312 127.992 28.4531 127.648 28.3438C126.57 28.5938 125.625 29.0312 124.812 29.6562C124 30.2656 123.32 31 122.773 31.8594C122.227 32.7188 121.812 33.6641 121.531 34.6953C121.266 35.7109 121.133 36.75 121.133 37.8125C121.133 39.0938 121.328 40.3594 121.719 41.6094C122.125 42.8594 122.734 43.9766 123.547 44.9609C124.359 45.9453 125.367 46.7422 126.57 47.3516C127.773 47.9609 129.188 48.2656 130.812 48.2656C131.953 48.2656 133.055 48.0859 134.117 47.7266C135.195 47.3672 136.141 46.8359 136.953 46.1328C137.781 45.4297 138.445 44.5625 138.945 43.5312C139.445 42.5 139.695 41.3125 139.695 39.9688C139.695 38.8906 139.516 37.9453 139.156 37.1328C138.797 36.3047 138.32 35.6016 137.727 35.0234C137.086 35.2891 136.445 35.5547 135.805 35.8203C135.18 36.0859 134.531 36.3281 133.859 36.5469C133.203 36.7656 132.531 36.9453 131.844 37.0859C131.156 37.2109 130.445 37.2734 129.711 37.2734C129.148 37.2734 128.656 37.2031 128.234 37.0625C127.828 36.9219 127.484 36.7422 127.203 36.5234C126.938 36.2891 126.734 36.0234 126.594 35.7266C126.469 35.4297 126.406 35.1172 126.406 34.7891C126.406 34.2891 126.539 33.8438 126.805 33.4531C127.086 33.0625 127.461 32.7344 127.93 32.4688C128.398 32.1875 128.945 31.9766 129.57 31.8359C130.211 31.6953 130.883 31.625 131.586 31.625C132.336 31.625 133.109 31.7109 133.906 31.8828C134.719 32.0391 135.516 32.2891 136.297 32.6328C137.281 32.1484 138.32 31.7188 139.414 31.3438C140.508 30.9531 141.695 30.7578 142.977 30.7578C143.836 30.7578 144.578 30.875 145.203 31.1094C145.828 31.3281 146.344 31.6172 146.75 31.9766C147.172 32.3359 147.477 32.7422 147.664 33.1953C147.867 33.6484 147.969 34.1016 147.969 34.5547C147.969 34.9766 147.891 35.3828 147.734 35.7734C147.578 36.1641 147.344 36.5156 147.031 36.8281C146.734 37.1406 146.367 37.3906 145.93 37.5781C145.492 37.7656 145 37.8594 144.453 37.8594L144.359 36.8984ZM131.586 32.7266C130.695 32.7266 129.953 32.8516 129.359 33.1016C128.766 33.3359 128.469 33.6562 128.469 34.0625C128.469 34.3125 128.609 34.5234 128.891 34.6953C129.172 34.8516 129.625 34.9297 130.25 34.9297C130.969 34.9297 131.711 34.7734 132.477 34.4609C133.258 34.1484 134.086 33.7734 134.961 33.3359C134.367 33.1172 133.781 32.9609 133.203 32.8672C132.625 32.7734 132.086 32.7266 131.586 32.7266ZM176.82 40.4844C176.82 40.0625 176.805 39.6562 176.773 39.2656C176.758 38.8594 176.734 38.4453 176.703 38.0234C176.672 37.6016 176.633 37.1562 176.586 36.6875C176.539 36.2031 176.492 35.6641 176.445 35.0703C175.805 35.3203 175.125 35.5156 174.406 35.6562C173.688 35.7812 172.891 35.8438 172.016 35.8438C171.047 35.8438 170.117 35.6953 169.227 35.3984C168.336 35.0859 167.547 34.6328 166.859 34.0391C166.172 33.4453 165.617 32.7031 165.195 31.8125C164.789 30.9062 164.586 29.8516 164.586 28.6484C164.586 27.8828 164.672 27.1484 164.844 26.4453C165.031 25.7266 165.352 24.9766 165.805 24.1953C166.258 23.4141 166.859 22.5703 167.609 21.6641C168.375 20.7422 169.336 19.6953 170.492 18.5234C171.648 17.3516 173.016 16.0234 174.594 14.5391C176.188 13.0547 178.047 11.3516 180.172 9.42969L181.133 10.1562C180.789 10.625 180.484 11.1406 180.219 11.7031C179.953 12.2656 179.727 12.9141 179.539 13.6484C179.352 14.3828 179.211 15.2344 179.117 16.2031C179.023 17.1562 178.977 18.2656 178.977 19.5312C178.977 21.4219 179.047 23.3438 179.188 25.2969C179.328 27.2344 179.484 29.1328 179.656 30.9922C179.969 30.5547 180.242 30.0938 180.477 29.6094C180.727 29.125 180.945 28.6406 181.133 28.1562L182.094 28.6484C181.781 29.3984 181.438 30.1016 181.062 30.7578C180.703 31.4141 180.281 32.0234 179.797 32.5859C179.875 33.3828 179.953 34.1172 180.031 34.7891C180.109 35.4453 180.172 36.0625 180.219 36.6406C180.281 37.2188 180.328 37.7734 180.359 38.3047C180.406 38.8359 180.43 39.375 180.43 39.9219C180.43 41.6094 180.273 43.1094 179.961 44.4219C179.664 45.7344 179.078 46.875 178.203 47.8438C177.344 48.8281 176.117 49.6328 174.523 50.2578C172.945 50.8828 171.07 51.1953 168.898 51.1953C167.555 51.1953 166.273 51.0078 165.055 50.6328C163.836 50.2578 162.766 49.7344 161.844 49.0625C160.922 48.3906 160.188 47.5859 159.641 46.6484C159.094 45.7109 158.82 44.6719 158.82 43.5312C158.82 42.6875 158.961 41.9297 159.242 41.2578C159.508 40.5859 159.859 39.9922 160.297 39.4766C160.734 38.9453 161.211 38.4922 161.727 38.1172C162.258 37.7422 162.773 37.4297 163.273 37.1797C163.773 36.9297 164.227 36.7344 164.633 36.5938C165.039 36.4531 165.344 36.3594 165.547 36.3125L166.016 37.2734C165.656 37.4609 165.25 37.7188 164.797 38.0469C164.359 38.3594 163.945 38.7656 163.555 39.2656C163.164 39.75 162.836 40.3438 162.57 41.0469C162.305 41.75 162.172 42.5781 162.172 43.5312C162.172 44.5469 162.344 45.4609 162.688 46.2734C163.031 47.0703 163.508 47.75 164.117 48.3125C164.742 48.8594 165.477 49.2812 166.32 49.5781C167.18 49.8594 168.117 50 169.133 50C170.273 50 171.312 49.8438 172.25 49.5312C173.203 49.2188 174.016 48.6953 174.688 47.9609C175.359 47.2266 175.883 46.25 176.258 45.0312C176.633 43.8125 176.82 42.2969 176.82 40.4844ZM176.82 14.2344C175.602 15.4062 174.523 16.4609 173.586 17.3984C172.648 18.3359 171.828 19.1953 171.125 19.9766C170.438 20.7578 169.859 21.4844 169.391 22.1562C168.922 22.8125 168.547 23.4609 168.266 24.1016C167.984 24.7422 167.781 25.3906 167.656 26.0469C167.531 26.7031 167.469 27.4062 167.469 28.1562C167.469 30.4375 167.977 32.0938 168.992 33.125C170.008 34.1406 171.414 34.6484 173.211 34.6484C173.805 34.6484 174.359 34.5938 174.875 34.4844C175.406 34.3594 175.898 34.1875 176.352 33.9688C176.242 32.8906 176.125 31.8125 176 30.7344C175.891 29.6406 175.789 28.5938 175.695 27.5938C175.602 26.5781 175.523 25.625 175.461 24.7344C175.414 23.8438 175.391 23.0625 175.391 22.3906C175.391 21.7188 175.422 20.9844 175.484 20.1875C175.562 19.3906 175.664 18.6172 175.789 17.8672C175.914 17.1016 176.062 16.3984 176.234 15.7578C176.406 15.1016 176.602 14.5937 176.82 14.2344ZM193.508 32.4219C193.07 32.4219 192.578 32.6172 192.031 33.0078C191.5 33.3984 190.961 33.9062 190.414 34.5312C189.867 35.1406 189.336 35.8281 188.82 36.5938C188.32 37.3594 187.883 38.1172 187.508 38.8672C187.461 40.2422 187.414 41.7422 187.367 43.3672C187.336 44.9922 187.32 46.7266 187.32 48.5703C187.32 48.8047 187.211 49.0156 186.992 49.2031C186.789 49.375 186.547 49.5234 186.266 49.6484C185.984 49.7578 185.695 49.8438 185.398 49.9062C185.102 49.9688 184.859 50 184.672 50C184.438 50 184.219 49.9297 184.016 49.7891C183.812 49.6484 183.711 49.3359 183.711 48.8516C183.711 48.6172 183.734 48.3281 183.781 47.9844C183.828 47.625 183.891 47.2422 183.969 46.8359C184.031 46.4297 184.109 46.0156 184.203 45.5938C184.281 45.1562 184.359 44.75 184.438 44.375V32.9141C184.438 32.6016 184.445 32.3594 184.461 32.1875C184.461 32 184.484 31.8594 184.531 31.7656C184.625 31.5469 184.789 31.375 185.023 31.25C185.258 31.125 185.508 31.0312 185.773 30.9688C186.039 30.8906 186.297 30.8438 186.547 30.8281C186.797 30.8125 186.992 30.8047 187.133 30.8047C187.398 30.8047 187.578 30.875 187.672 31.0156C187.781 31.1562 187.836 31.4062 187.836 31.7656C187.836 31.7188 187.797 32.1016 187.719 32.9141C187.656 33.7266 187.602 34.8906 187.555 36.4062C188.023 35.6719 188.531 34.9688 189.078 34.2969C189.625 33.625 190.195 33.0312 190.789 32.5156C191.383 32 191.992 31.5859 192.617 31.2734C193.258 30.9609 193.906 30.8047 194.562 30.8047C195.734 30.8047 196.594 31.1797 197.141 31.9297C197.688 32.6641 197.961 33.6641 197.961 34.9297C197.961 35.7266 197.906 36.6172 197.797 37.6016C197.703 38.5703 197.586 39.5625 197.445 40.5781C197.32 41.5781 197.203 42.5625 197.094 43.5312C197 44.4844 196.953 45.3594 196.953 46.1562C196.953 47.1875 197.273 47.7031 197.914 47.7031C198.117 47.7031 198.352 47.6016 198.617 47.3984C198.898 47.1797 199.242 46.7812 199.648 46.2031C200.07 45.625 200.57 44.8359 201.148 43.8359C201.727 42.8203 202.414 41.5156 203.211 39.9219L203.445 39.4297L204.406 40.1562L204.172 40.6484C203.234 42.5234 202.398 44.0625 201.664 45.2656C200.945 46.4688 200.289 47.4219 199.695 48.125C199.102 48.8281 198.547 49.3203 198.031 49.6016C197.516 49.8672 197 50 196.484 50C196.156 50 195.828 49.9531 195.5 49.8594C195.172 49.7656 194.883 49.6016 194.633 49.3672C194.383 49.1328 194.18 48.8203 194.023 48.4297C193.867 48.0234 193.789 47.5078 193.789 46.8828C193.789 45.9453 193.852 44.8906 193.977 43.7188C194.102 42.5469 194.242 41.375 194.398 40.2031C194.555 39.0312 194.695 37.9297 194.82 36.8984C194.945 35.8516 195.008 35 195.008 34.3438C195.008 33.7656 194.883 33.3047 194.633 32.9609C194.383 32.6016 194.008 32.4219 193.508 32.4219ZM223.297 40.1562L223.062 40.6484C222.406 41.9609 221.781 43.1875 221.188 44.3281C220.594 45.4688 220 46.4609 219.406 47.3047C218.812 48.1484 218.203 48.8125 217.578 49.2969C216.969 49.7656 216.312 50 215.609 50C214.906 50 214.219 49.8125 213.547 49.4375C212.875 49.0625 212.203 48.5391 211.531 47.8672C210.875 47.1953 210.211 46.4141 209.539 45.5234C208.883 44.6172 208.203 43.6328 207.5 42.5703L206.68 42.7109C206.648 44.0859 206.602 45.3281 206.539 46.4375C206.477 47.5312 206.398 48.4297 206.305 49.1328C206.258 49.4453 206.125 49.6719 205.906 49.8125C205.703 49.9375 205.422 50 205.062 50C204.641 50 204.289 49.9453 204.008 49.8359C203.727 49.7266 203.508 49.5938 203.352 49.4375C203.18 49.2656 203.062 49.0859 203 48.8984C202.922 48.6953 202.883 48.5 202.883 48.3125C202.883 47.3125 203.047 46.0703 203.375 44.5859V32.4688C203.375 29.4688 203.531 26.875 203.844 24.6875C204.156 22.4844 204.578 20.6641 205.109 19.2266C205.641 17.7734 206.258 16.7031 206.961 16.0156C207.68 15.3125 208.438 14.9609 209.234 14.9609C210.094 14.9609 210.703 15.2422 211.062 15.8047C211.438 16.3516 211.625 17.1094 211.625 18.0781C211.625 18.9219 211.5 20.0078 211.25 21.3359C211 22.6484 210.648 24.0938 210.195 25.6719C209.758 27.25 209.242 28.8984 208.648 30.6172C208.055 32.3203 207.414 33.9844 206.727 35.6094V36.125C207.164 35.4219 207.672 34.75 208.25 34.1094C208.844 33.4688 209.477 32.9062 210.148 32.4219C210.82 31.9219 211.508 31.5312 212.211 31.25C212.93 30.9531 213.633 30.8047 214.32 30.8047C214.93 30.8047 215.484 30.8906 215.984 31.0625C216.5 31.2344 216.945 31.4844 217.32 31.8125C217.695 32.1406 217.984 32.5547 218.188 33.0547C218.391 33.5391 218.492 34.1016 218.492 34.7422C218.492 35.3984 218.344 36.0547 218.047 36.7109C217.766 37.3672 217.312 38 216.688 38.6094C216.078 39.2188 215.289 39.7969 214.32 40.3438C213.352 40.875 212.18 41.3438 210.805 41.75C210.898 41.8906 211.055 42.125 211.273 42.4531C211.492 42.7812 211.75 43.1562 212.047 43.5781C212.359 43.9844 212.695 44.4141 213.055 44.8672C213.414 45.3047 213.781 45.7109 214.156 46.0859C214.547 46.4453 214.93 46.75 215.305 47C215.68 47.2344 216.023 47.3516 216.336 47.3516C216.758 47.3516 217.188 47.1797 217.625 46.8359C218.062 46.4766 218.516 45.9766 218.984 45.3359C219.469 44.6797 219.969 43.8984 220.484 42.9922C221 42.0703 221.539 41.0469 222.102 39.9219L222.336 39.4297L223.297 40.1562ZM206.727 38.1406C206.727 38.5 206.719 38.8203 206.703 39.1016C206.703 39.3672 206.703 39.6328 206.703 39.8984C206.703 40.1484 206.695 40.4062 206.68 40.6719C206.68 40.9375 206.68 41.2344 206.68 41.5625C208.273 41.3281 209.617 41.0156 210.711 40.625C211.82 40.2344 212.719 39.7812 213.406 39.2656C214.094 38.75 214.594 38.1875 214.906 37.5781C215.219 36.9531 215.375 36.2969 215.375 35.6094C215.375 35.25 215.312 34.9062 215.188 34.5781C215.078 34.2344 214.914 33.9375 214.695 33.6875C214.477 33.4219 214.203 33.2109 213.875 33.0547C213.562 32.8984 213.211 32.8203 212.82 32.8203C212.273 32.8203 211.719 32.9688 211.156 33.2656C210.609 33.5469 210.062 33.9297 209.516 34.4141C208.984 34.8984 208.477 35.4688 207.992 36.125C207.523 36.7656 207.102 37.4375 206.727 38.1406ZM208.789 16.1562C208.461 16.1562 208.172 16.4766 207.922 17.1172C207.688 17.7578 207.484 18.7578 207.312 20.1172C207.141 21.4609 207 23.1797 206.891 25.2734C206.781 27.3516 206.695 29.8359 206.633 32.7266C207.289 30.9922 207.82 29.3672 208.227 27.8516C208.633 26.3203 208.945 24.9453 209.164 23.7266C209.398 22.4922 209.555 21.4219 209.633 20.5156C209.711 19.5938 209.75 18.8594 209.75 18.3125C209.75 17.4844 209.672 16.9219 209.516 16.625C209.375 16.3125 209.133 16.1562 208.789 16.1562Z" fill="#0B232E"/>
<path d="M55.354 72.49L55.342 73H50.254V64.51H55.342V65.02H50.872V68.452H54.592V68.95H50.872V72.49H55.354ZM65.5669 68.752C65.5669 69.408 65.4689 69.998 65.2729 70.522C65.0769 71.046 64.8009 71.492 64.4449 71.86C64.0889 72.228 63.6609 72.51 63.1609 72.706C62.6649 72.902 62.1169 73 61.5169 73H58.4149V64.51H61.5169C62.1169 64.51 62.6649 64.608 63.1609 64.804C63.6609 65 64.0889 65.282 64.4449 65.65C64.8009 66.018 65.0769 66.464 65.2729 66.988C65.4689 67.512 65.5669 68.1 65.5669 68.752ZM64.9309 68.752C64.9309 68.16 64.8489 67.632 64.6849 67.168C64.5209 66.704 64.2889 66.312 63.9889 65.992C63.6889 65.672 63.3289 65.428 62.9089 65.26C62.4889 65.092 62.0249 65.008 61.5169 65.008H59.0329V72.502H61.5169C62.0249 72.502 62.4889 72.418 62.9089 72.25C63.3289 72.082 63.6889 71.838 63.9889 71.518C64.2889 71.198 64.5209 70.806 64.6849 70.342C64.8489 69.878 64.9309 69.348 64.9309 68.752ZM69.3501 73H68.7321V64.51H69.3501V73ZM78.581 65.032H75.599V73H74.981V65.032H71.981V64.51H78.581V65.032ZM81.8282 73H81.2102V64.51H81.8282V73ZM92.0912 64.51V73H91.8032C91.7512 73 91.7072 72.992 91.6712 72.976C91.6392 72.956 91.6072 72.924 91.5752 72.88L86.0612 65.512C86.0732 65.632 86.0792 65.746 86.0792 65.854V73H85.5392V64.51H85.8452C85.9012 64.51 85.9432 64.518 85.9712 64.534C86.0032 64.546 86.0372 64.576 86.0732 64.624L91.5752 71.974C91.5632 71.854 91.5572 71.74 91.5572 71.632V64.51H92.0912ZM102.578 69.148V72.166C102.154 72.466 101.702 72.696 101.222 72.856C100.742 73.016 100.202 73.096 99.6018 73.096C98.9298 73.096 98.3258 72.994 97.7898 72.79C97.2538 72.582 96.7958 72.29 96.4158 71.914C96.0398 71.534 95.7498 71.076 95.5458 70.54C95.3458 70.004 95.2458 69.408 95.2458 68.752C95.2458 68.096 95.3438 67.502 95.5398 66.97C95.7398 66.434 96.0238 65.978 96.3918 65.602C96.7638 65.222 97.2118 64.93 97.7358 64.726C98.2598 64.518 98.8498 64.414 99.5058 64.414C99.8298 64.414 100.128 64.436 100.4 64.48C100.676 64.524 100.932 64.59 101.168 64.678C101.404 64.762 101.624 64.868 101.828 64.996C102.032 65.12 102.228 65.264 102.416 65.428L102.248 65.692C102.192 65.788 102.108 65.81 101.996 65.758C101.936 65.734 101.85 65.678 101.738 65.59C101.626 65.502 101.472 65.41 101.276 65.314C101.08 65.218 100.836 65.132 100.544 65.056C100.256 64.98 99.9038 64.942 99.4878 64.942C98.9358 64.942 98.4358 65.03 97.9878 65.206C97.5438 65.382 97.1638 65.634 96.8478 65.962C96.5358 66.29 96.2938 66.69 96.1218 67.162C95.9538 67.634 95.8698 68.164 95.8698 68.752C95.8698 69.348 95.9538 69.884 96.1218 70.36C96.2938 70.836 96.5398 71.24 96.8598 71.572C97.1838 71.904 97.5758 72.158 98.0358 72.334C98.4958 72.51 99.0138 72.598 99.5898 72.598C99.8418 72.598 100.074 72.582 100.286 72.55C100.502 72.518 100.706 72.474 100.898 72.418C101.094 72.358 101.282 72.286 101.462 72.202C101.646 72.114 101.832 72.016 102.02 71.908V69.622H100.394C100.35 69.622 100.312 69.608 100.28 69.58C100.252 69.552 100.238 69.52 100.238 69.484V69.148H102.578ZM111.972 68.572C111.708 68.68 111.468 68.812 111.252 68.968C111.04 69.124 110.86 69.298 110.712 69.49C110.564 69.682 110.45 69.888 110.37 70.108C110.29 70.328 110.25 70.556 110.25 70.792C110.25 71.1 110.308 71.368 110.424 71.596C110.544 71.824 110.698 72.016 110.886 72.172C111.074 72.324 111.282 72.438 111.51 72.514C111.742 72.59 111.97 72.628 112.194 72.628C112.478 72.628 112.744 72.596 112.992 72.532C113.244 72.468 113.478 72.38 113.694 72.268C113.91 72.152 114.11 72.016 114.294 71.86C114.478 71.7 114.644 71.528 114.792 71.344L112.038 68.638L111.972 68.572ZM117.216 73H116.682C116.61 73 116.55 72.992 116.502 72.976C116.458 72.96 116.406 72.924 116.346 72.868L115.116 71.662C114.94 71.87 114.744 72.062 114.528 72.238C114.312 72.41 114.078 72.56 113.826 72.688C113.574 72.816 113.304 72.916 113.016 72.988C112.728 73.06 112.426 73.096 112.11 73.096C111.81 73.096 111.514 73.046 111.222 72.946C110.93 72.846 110.668 72.7 110.436 72.508C110.208 72.312 110.022 72.074 109.878 71.794C109.738 71.51 109.668 71.188 109.668 70.828C109.668 70.54 109.72 70.266 109.824 70.006C109.928 69.742 110.07 69.502 110.25 69.286C110.43 69.066 110.644 68.87 110.892 68.698C111.14 68.526 111.408 68.386 111.696 68.278C111.408 67.954 111.194 67.642 111.054 67.342C110.914 67.042 110.844 66.72 110.844 66.376C110.844 66.096 110.894 65.838 110.994 65.602C111.098 65.362 111.244 65.154 111.432 64.978C111.62 64.802 111.844 64.664 112.104 64.564C112.368 64.464 112.662 64.414 112.986 64.414C113.254 64.414 113.508 64.46 113.748 64.552C113.988 64.644 114.196 64.768 114.372 64.924C114.552 65.08 114.694 65.262 114.798 65.47C114.906 65.674 114.964 65.888 114.972 66.112L114.648 66.178C114.608 66.186 114.57 66.18 114.534 66.16C114.502 66.136 114.476 66.096 114.456 66.04C114.436 65.932 114.392 65.81 114.324 65.674C114.26 65.538 114.168 65.41 114.048 65.29C113.928 65.17 113.78 65.07 113.604 64.99C113.428 64.906 113.222 64.864 112.986 64.864C112.746 64.864 112.528 64.902 112.332 64.978C112.136 65.05 111.968 65.154 111.828 65.29C111.688 65.422 111.578 65.58 111.498 65.764C111.422 65.948 111.384 66.15 111.384 66.37C111.384 66.698 111.468 67.012 111.636 67.312C111.804 67.612 112.064 67.934 112.416 68.278L115.098 70.912C115.278 70.624 115.42 70.326 115.524 70.018C115.628 69.706 115.696 69.404 115.728 69.112C115.736 69.06 115.752 69.02 115.776 68.992C115.8 68.96 115.836 68.944 115.884 68.944H116.214C116.206 69.32 116.136 69.708 116.004 70.108C115.872 70.504 115.682 70.884 115.434 71.248L117.216 73ZM131.469 68.752C131.469 69.408 131.371 69.998 131.175 70.522C130.979 71.046 130.703 71.492 130.347 71.86C129.991 72.228 129.562 72.51 129.062 72.706C128.567 72.902 128.019 73 127.419 73H124.317V64.51H127.419C128.019 64.51 128.567 64.608 129.062 64.804C129.562 65 129.991 65.282 130.347 65.65C130.703 66.018 130.979 66.464 131.175 66.988C131.371 67.512 131.469 68.1 131.469 68.752ZM130.833 68.752C130.833 68.16 130.751 67.632 130.587 67.168C130.423 66.704 130.191 66.312 129.891 65.992C129.591 65.672 129.231 65.428 128.811 65.26C128.391 65.092 127.927 65.008 127.419 65.008H124.935V72.502H127.419C127.927 72.502 128.391 72.418 128.811 72.25C129.231 72.082 129.591 71.838 129.891 71.518C130.191 71.198 130.423 70.806 130.587 70.342C130.751 69.878 130.833 69.348 130.833 68.752ZM135.252 73H134.634V64.51H135.252V73ZM145.743 69.148V72.166C145.319 72.466 144.867 72.696 144.387 72.856C143.907 73.016 143.367 73.096 142.767 73.096C142.095 73.096 141.491 72.994 140.955 72.79C140.419 72.582 139.961 72.29 139.581 71.914C139.205 71.534 138.915 71.076 138.711 70.54C138.511 70.004 138.411 69.408 138.411 68.752C138.411 68.096 138.509 67.502 138.705 66.97C138.905 66.434 139.189 65.978 139.557 65.602C139.929 65.222 140.377 64.93 140.901 64.726C141.425 64.518 142.015 64.414 142.671 64.414C142.995 64.414 143.293 64.436 143.565 64.48C143.841 64.524 144.097 64.59 144.333 64.678C144.569 64.762 144.789 64.868 144.993 64.996C145.197 65.12 145.393 65.264 145.581 65.428L145.413 65.692C145.357 65.788 145.273 65.81 145.161 65.758C145.101 65.734 145.015 65.678 144.903 65.59C144.791 65.502 144.637 65.41 144.441 65.314C144.245 65.218 144.001 65.132 143.709 65.056C143.421 64.98 143.069 64.942 142.653 64.942C142.101 64.942 141.601 65.03 141.153 65.206C140.709 65.382 140.329 65.634 140.013 65.962C139.701 66.29 139.459 66.69 139.287 67.162C139.119 67.634 139.035 68.164 139.035 68.752C139.035 69.348 139.119 69.884 139.287 70.36C139.459 70.836 139.705 71.24 140.025 71.572C140.349 71.904 140.741 72.158 141.201 72.334C141.661 72.51 142.179 72.598 142.755 72.598C143.007 72.598 143.239 72.582 143.451 72.55C143.667 72.518 143.871 72.474 144.063 72.418C144.259 72.358 144.447 72.286 144.627 72.202C144.811 72.114 144.997 72.016 145.185 71.908V69.622H143.559C143.515 69.622 143.477 69.608 143.445 69.58C143.417 69.552 143.403 69.52 143.403 69.484V69.148H145.743ZM149.605 73H148.987V64.51H149.605V73ZM158.836 65.032H155.854V73H155.236V65.032H152.236V64.51H158.836V65.032ZM165.211 69.916L163.483 65.626C163.423 65.486 163.365 65.318 163.309 65.122C163.285 65.218 163.259 65.31 163.231 65.398C163.203 65.482 163.173 65.56 163.141 65.632L161.413 69.916H165.211ZM167.089 73H166.615C166.559 73 166.513 72.986 166.477 72.958C166.441 72.926 166.413 72.886 166.393 72.838L165.397 70.372H161.227L160.231 72.838C160.215 72.882 160.187 72.92 160.147 72.952C160.107 72.984 160.059 73 160.003 73H159.535L163.009 64.51H163.615L167.089 73ZM174.334 72.478V73H169.696V64.51H170.314V72.478H174.334ZM185.195 65.542C185.159 65.61 185.107 65.644 185.039 65.644C184.987 65.644 184.919 65.608 184.835 65.536C184.755 65.46 184.645 65.378 184.505 65.29C184.365 65.198 184.189 65.114 183.977 65.038C183.769 64.962 183.511 64.924 183.203 64.924C182.895 64.924 182.623 64.968 182.387 65.056C182.155 65.144 181.959 65.264 181.799 65.416C181.643 65.568 181.523 65.744 181.439 65.944C181.359 66.144 181.319 66.354 181.319 66.574C181.319 66.862 181.379 67.1 181.499 67.288C181.623 67.476 181.785 67.636 181.985 67.768C182.185 67.9 182.411 68.012 182.663 68.104C182.919 68.192 183.181 68.28 183.449 68.368C183.717 68.456 183.977 68.554 184.229 68.662C184.485 68.766 184.713 68.898 184.913 69.058C185.113 69.218 185.273 69.416 185.393 69.652C185.517 69.884 185.579 70.174 185.579 70.522C185.579 70.878 185.517 71.214 185.393 71.53C185.273 71.842 185.097 72.114 184.865 72.346C184.633 72.578 184.349 72.762 184.013 72.898C183.677 73.03 183.293 73.096 182.861 73.096C182.301 73.096 181.819 72.998 181.415 72.802C181.011 72.602 180.657 72.33 180.353 71.986L180.521 71.722C180.569 71.662 180.625 71.632 180.689 71.632C180.725 71.632 180.771 71.656 180.827 71.704C180.883 71.752 180.951 71.812 181.031 71.884C181.111 71.952 181.207 72.028 181.319 72.112C181.431 72.192 181.561 72.268 181.709 72.34C181.857 72.408 182.027 72.466 182.219 72.514C182.411 72.562 182.629 72.586 182.873 72.586C183.209 72.586 183.509 72.536 183.773 72.436C184.037 72.332 184.259 72.192 184.439 72.016C184.623 71.84 184.763 71.632 184.859 71.392C184.955 71.148 185.003 70.888 185.003 70.612C185.003 70.312 184.941 70.066 184.817 69.874C184.697 69.678 184.537 69.516 184.337 69.388C184.137 69.256 183.909 69.146 183.653 69.058C183.401 68.97 183.141 68.884 182.873 68.8C182.605 68.716 182.343 68.622 182.087 68.518C181.835 68.414 181.609 68.282 181.409 68.122C181.209 67.958 181.047 67.756 180.923 67.516C180.803 67.272 180.743 66.968 180.743 66.604C180.743 66.32 180.797 66.046 180.905 65.782C181.013 65.518 181.171 65.286 181.379 65.086C181.587 64.882 181.843 64.72 182.147 64.6C182.455 64.476 182.805 64.414 183.197 64.414C183.637 64.414 184.031 64.484 184.379 64.624C184.731 64.764 185.051 64.978 185.339 65.266L185.195 65.542ZM193.795 72.49L193.783 73H188.695V64.51H193.783V65.02H189.313V68.452H193.033V68.95H189.313V72.49H193.795ZM198.944 68.704C199.32 68.704 199.656 68.66 199.952 68.572C200.252 68.48 200.504 68.35 200.708 68.182C200.916 68.014 201.074 67.812 201.182 67.576C201.29 67.34 201.344 67.074 201.344 66.778C201.344 66.174 201.146 65.726 200.75 65.434C200.358 65.142 199.784 64.996 199.028 64.996H197.474V68.704H198.944ZM202.712 73H202.184C202.116 73 202.058 72.99 202.01 72.97C201.966 72.946 201.924 72.904 201.884 72.844L199.16 69.4C199.128 69.356 199.094 69.318 199.058 69.286C199.026 69.254 198.988 69.23 198.944 69.214C198.904 69.194 198.854 69.18 198.794 69.172C198.738 69.164 198.668 69.16 198.584 69.16H197.474V73H196.856V64.51H199.028C200.004 64.51 200.734 64.7 201.218 65.08C201.706 65.456 201.95 66.01 201.95 66.742C201.95 67.066 201.894 67.362 201.782 67.63C201.67 67.898 201.508 68.134 201.296 68.338C201.088 68.538 200.834 68.702 200.534 68.83C200.238 68.958 199.904 69.044 199.532 69.088C199.628 69.148 199.714 69.228 199.79 69.328L202.712 73ZM211.637 64.51L208.133 73H207.587L204.083 64.51H204.569C204.625 64.51 204.671 64.526 204.707 64.558C204.743 64.586 204.771 64.624 204.791 64.672L207.683 71.716C207.715 71.804 207.747 71.898 207.779 71.998C207.811 72.098 207.841 72.2 207.869 72.304C207.893 72.2 207.919 72.098 207.947 71.998C207.975 71.898 208.007 71.804 208.043 71.716L210.929 64.672C210.945 64.628 210.973 64.59 211.013 64.558C211.053 64.526 211.101 64.51 211.157 64.51H211.637ZM214.862 73H214.244V64.51H214.862V73ZM224.699 71.572C224.739 71.572 224.773 71.586 224.801 71.614L225.041 71.872C224.865 72.06 224.673 72.23 224.465 72.382C224.261 72.53 224.035 72.658 223.787 72.766C223.543 72.87 223.273 72.95 222.977 73.006C222.685 73.066 222.363 73.096 222.011 73.096C221.423 73.096 220.883 72.994 220.391 72.79C219.903 72.582 219.483 72.29 219.131 71.914C218.779 71.534 218.505 71.076 218.309 70.54C218.117 70.004 218.021 69.408 218.021 68.752C218.021 68.108 218.121 67.52 218.321 66.988C218.521 66.456 218.801 66 219.161 65.62C219.521 65.236 219.953 64.94 220.457 64.732C220.961 64.52 221.517 64.414 222.125 64.414C222.705 64.414 223.219 64.504 223.667 64.684C224.115 64.864 224.523 65.118 224.891 65.446L224.705 65.716C224.673 65.764 224.623 65.788 224.555 65.788C224.507 65.788 224.429 65.744 224.321 65.656C224.213 65.568 224.063 65.472 223.871 65.368C223.679 65.26 223.439 65.162 223.151 65.074C222.867 64.986 222.525 64.942 222.125 64.942C221.613 64.942 221.143 65.03 220.715 65.206C220.291 65.382 219.925 65.634 219.617 65.962C219.313 66.29 219.075 66.69 218.903 67.162C218.731 67.634 218.645 68.164 218.645 68.752C218.645 69.352 218.731 69.888 218.903 70.36C219.079 70.832 219.319 71.232 219.623 71.56C219.927 71.884 220.285 72.134 220.697 72.31C221.113 72.482 221.561 72.568 222.041 72.568C222.345 72.568 222.615 72.548 222.851 72.508C223.091 72.468 223.311 72.408 223.511 72.328C223.711 72.248 223.897 72.15 224.069 72.034C224.241 71.918 224.411 71.782 224.579 71.626C224.599 71.61 224.619 71.598 224.639 71.59C224.659 71.578 224.679 71.572 224.699 71.572ZM232.982 72.49L232.97 73H227.882V64.51H232.97V65.02H228.5V68.452H232.22V68.95H228.5V72.49H232.982ZM240.165 65.542C240.129 65.61 240.077 65.644 240.009 65.644C239.957 65.644 239.889 65.608 239.805 65.536C239.725 65.46 239.615 65.378 239.475 65.29C239.335 65.198 239.159 65.114 238.947 65.038C238.739 64.962 238.481 64.924 238.173 64.924C237.865 64.924 237.593 64.968 237.357 65.056C237.125 65.144 236.929 65.264 236.769 65.416C236.613 65.568 236.493 65.744 236.409 65.944C236.329 66.144 236.289 66.354 236.289 66.574C236.289 66.862 236.349 67.1 236.469 67.288C236.593 67.476 236.755 67.636 236.955 67.768C237.155 67.9 237.381 68.012 237.633 68.104C237.889 68.192 238.151 68.28 238.419 68.368C238.687 68.456 238.947 68.554 239.199 68.662C239.455 68.766 239.683 68.898 239.883 69.058C240.083 69.218 240.243 69.416 240.363 69.652C240.487 69.884 240.549 70.174 240.549 70.522C240.549 70.878 240.487 71.214 240.363 71.53C240.243 71.842 240.067 72.114 239.835 72.346C239.603 72.578 239.319 72.762 238.983 72.898C238.647 73.03 238.263 73.096 237.831 73.096C237.271 73.096 236.789 72.998 236.385 72.802C235.981 72.602 235.627 72.33 235.323 71.986L235.491 71.722C235.539 71.662 235.595 71.632 235.659 71.632C235.695 71.632 235.741 71.656 235.797 71.704C235.853 71.752 235.921 71.812 236.001 71.884C236.081 71.952 236.177 72.028 236.289 72.112C236.401 72.192 236.531 72.268 236.679 72.34C236.827 72.408 236.997 72.466 237.189 72.514C237.381 72.562 237.599 72.586 237.843 72.586C238.179 72.586 238.479 72.536 238.743 72.436C239.007 72.332 239.229 72.192 239.409 72.016C239.593 71.84 239.733 71.632 239.829 71.392C239.925 71.148 239.973 70.888 239.973 70.612C239.973 70.312 239.911 70.066 239.787 69.874C239.667 69.678 239.507 69.516 239.307 69.388C239.107 69.256 238.879 69.146 238.623 69.058C238.371 68.97 238.111 68.884 237.843 68.8C237.575 68.716 237.313 68.622 237.057 68.518C236.805 68.414 236.579 68.282 236.379 68.122C236.179 67.958 236.017 67.756 235.893 67.516C235.773 67.272 235.713 66.968 235.713 66.604C235.713 66.32 235.767 66.046 235.875 65.782C235.983 65.518 236.141 65.286 236.349 65.086C236.557 64.882 236.813 64.72 237.117 64.6C237.425 64.476 237.775 64.414 238.167 64.414C238.607 64.414 239.001 64.484 239.349 64.624C239.701 64.764 240.021 64.978 240.309 65.266L240.165 65.542Z" fill="#0B232E"/>
</svg>
